<svg width="1402" height="1141" viewBox="0 0 1402 1141" fill="none" xmlns="http://www.w3.org/2000/svg">
<path opacity="0.1" d="M-72.973 198.788C-31.0892 102.574 106.399 57.0131 221.351 101.392C255.268 114.396 288.73 118.215 319.232 110.849C415.633 87.387 506.115 40.5531 617.085 18.2729C731.354 -4.82578 887.508 -10.1912 994.835 26.9121C1158.16 83.3856 1234.3 135.312 1290.18 203.062C1356.31 283.271 1551.39 654.122 1188.32 1004.97C1175 1017.79 1172.5 1022.06 1154.97 1037.07C1149.05 1042.16 1128.45 1062.71 1120.6 1065.62L1083.04 1089.09C997.111 1137.1 941.001 1143.74 898.548 1140.19C845.055 1135.92 792.587 1126.19 741.712 1112.19L-141.148 869.831C-251.548 838.366 -309.593 741.606 -271.124 653.213L-72.973 198.788Z" fill="#262C40"/>
</svg>
