<?xml version="1.0" encoding="UTF-8"?>
<svg width="108px" height="42px" viewBox="0 0 108 42" version="1.1" xmlns="http://www.w3.org/2000/svg" xmlns:xlink="http://www.w3.org/1999/xlink">
    <title>Group</title>
    <g id="Page-1" stroke="none" stroke-width="1" fill="none" fill-rule="evenodd">
        <g id="сайт-весь-блок-(1)" transform="translate(-412.000000, -14.000000)" fill-rule="nonzero">
            <g id="Group" transform="translate(412.000000, 14.000000)">
                <path d="M44.62,6.15 C44.62,7.65 44.49,8.89 43.47,10.07 C42.45,11.25 40.91,11.92 39.36,11.92 C36.24,11.92 33.65,9.33 33.65,6.21 C33.65,3.03 36.24,0.44 39.44,0.44 C41.38,0.44 42.96,1.31 44.13,2.84 L43.23,3.68 C42.3,2.37 41.05,1.59 39.42,1.59 C36.89,1.59 34.89,3.73 34.89,6.23 C34.89,7.41 35.36,8.53 36.19,9.36 C37,10.17 38.18,10.77 39.34,10.77 C41.27,10.77 43.3,9.36 43.3,7.3 L40,7.3 L40,6.15 L44.62,6.15 L44.62,6.15 Z" id="Path" fill="#FFFFFF"></path>
                <path d="M46.96,8.52 C46.97,9.8 47.98,10.83 49.34,10.83 C50.24,10.83 50.89,10.45 51.36,9.79 L52.3,10.35 C51.64,11.29 50.56,11.93 49.25,11.93 C47.15,11.93 45.75,10.35 45.75,8.37 C45.75,6.32 46.94,4.63 49.11,4.63 C51.33,4.63 52.51,6.47 52.39,8.53 L46.96,8.53 L46.96,8.52 Z M51.16,7.52 C51,6.52 50.16,5.71 49.13,5.71 C48.11,5.71 47.17,6.52 47.02,7.52 L51.16,7.52 Z" id="Shape" fill="#FFFFFF"></path>
                <path d="M56.06,11.76 C55.29,11.76 54.66,11.51 54.28,10.89 C53.97,10.39 53.97,9.67 53.97,9.09 L53.97,5.9 L53.25,5.9 L53.25,4.81 L53.97,4.81 L53.97,2.32 L55.15,2.32 L55.15,4.81 L56.36,4.81 L56.36,5.9 L55.15,5.9 L55.15,8.68 C55.15,9.9 55.22,10.58 56.11,10.58 L56.36,10.58 L56.36,11.76 L56.06,11.76 Z" id="Path" fill="#FFFFFF"></path>
                <polygon id="Path" fill="#FFFFFF" points="3.37 14.06 0.65 14.06 0.65 31.71 2.42 31.71 2.42 16.02 9.06 31.71 10.57 31.71 17.2 16.02 17.2 31.71 18.99 31.71 18.99 14.06 16.24 14.06 10.07 29.1 9.91 29.73 9.76 29.1"></polygon>
                <path d="M32.02,20.74 C32.79,21.21 33.4,21.84 33.85,22.64 C34.3,23.44 34.53,24.3 34.53,25.22 C34.53,26.14 34.3,26.99 33.84,27.77 C33.38,28.55 32.76,29.17 31.98,29.64 C31.2,30.1 30.36,30.33 29.46,30.33 C28.52,30.33 27.64,30.1 26.84,29.64 C26.03,29.18 25.39,28.56 24.92,27.77 C24.45,26.99 24.21,26.14 24.21,25.22 C24.21,24.28 24.44,23.41 24.91,22.62 C25.38,21.83 26.02,21.2 26.84,20.73 C27.66,20.27 28.56,20.04 29.54,20.04 C30.42,20.04 31.25,20.27 32.02,20.74 M34.53,18.63 L34.53,21.13 C34.22,20.58 33.87,20.14 33.47,19.79 C32.96,19.32 32.36,18.97 31.66,18.72 C30.96,18.47 30.22,18.35 29.43,18.35 C28.17,18.35 27,18.66 25.93,19.27 C24.85,19.88 24,20.7 23.37,21.75 C22.74,22.8 22.43,23.94 22.43,25.16 C22.43,25.9 22.55,26.63 22.78,27.36 C23.01,28.09 23.33,28.72 23.72,29.23 C24.35,30.03 25.21,30.69 26.29,31.21 C27.37,31.73 28.43,31.99 29.48,31.99 C31.05,31.99 32.37,31.53 33.45,30.62 C33.85,30.24 34.21,29.78 34.53,29.23 L34.53,31.69 L36.25,31.69 L36.25,18.64 L34.53,18.63 Z" id="Shape" fill="#FFFFFF"></path>
                <polygon id="Path" fill="#FFFFFF" points="9.76 29.1 9.91 29.73 10.07 29.1 16.24 14.06 18.99 14.06 18.99 31.71 17.2 31.71 17.2 16.02 10.57 31.71 9.06 31.71 2.42 16.02 2.42 31.71 0.65 31.71 0.65 14.06 3.37 14.06"></polygon>
                <path d="M36.22,18.64 L36.22,31.7 L34.5,31.7 L34.5,29.24 C34.18,29.79 33.82,30.25 33.42,30.63 C32.35,31.55 31.03,32.01 29.45,32.01 C28.4,32.01 27.34,31.75 26.26,31.23 C25.18,30.71 24.32,30.05 23.69,29.25 C23.3,28.73 22.98,28.11 22.75,27.38 C22.52,26.65 22.4,25.91 22.4,25.18 C22.4,23.95 22.71,22.81 23.34,21.77 C23.97,20.72 24.82,19.9 25.9,19.29 C26.97,18.68 28.14,18.37 29.4,18.37 C30.19,18.37 30.93,18.49 31.63,18.74 C32.33,18.99 32.93,19.34 33.44,19.81 C33.83,20.15 34.18,20.6 34.5,21.15 L34.5,18.65 L36.22,18.64 Z M29.5,20.04 C28.52,20.04 27.62,20.27 26.8,20.73 C25.98,21.19 25.34,21.82 24.87,22.62 C24.4,23.41 24.17,24.28 24.17,25.22 C24.17,26.14 24.41,26.99 24.88,27.77 C25.35,28.55 25.99,29.17 26.8,29.64 C27.61,30.1 28.48,30.33 29.42,30.33 C30.32,30.33 31.16,30.1 31.94,29.64 C32.72,29.18 33.34,28.56 33.8,27.77 C34.26,26.99 34.49,26.14 34.49,25.22 C34.49,24.3 34.27,23.44 33.82,22.64 C33.37,21.84 32.76,21.2 31.99,20.74 C31.23,20.27 30.39,20.04 29.5,20.04" id="Shape" fill="#FFFFFF"></path>
                <path d="M39.85,31.71 L39.85,18.64 L41.51,18.64 L41.51,20.52 C41.76,20.06 42,19.72 42.25,19.49 C42.55,19.19 42.91,18.95 43.33,18.77 C43.8,18.57 44.46,18.43 45.32,18.37 L45.32,20.11 C44.57,20.19 43.95,20.37 43.48,20.64 C42.78,21.08 42.27,21.63 41.95,22.27 C41.73,22.69 41.62,23.4 41.62,24.41 L41.62,31.73 L39.85,31.73 L39.85,31.71 Z" id="Path" fill="#FFFFFF"></path>
                <path d="M49.41,31.71 L47.65,31.71 L47.65,14.06 L49.41,14.06 L49.41,31.71 Z M49.64,24.95 L55.4,18.66 L57.49,18.66 L51.73,24.9 L57.87,31.71 L55.7,31.71 L49.64,24.95 Z" id="Shape" fill="#FFFFFF"></path>
                <path d="M41.63,31.71 L41.63,24.4 C41.63,23.39 41.74,22.68 41.96,22.26 C42.29,21.61 42.8,21.07 43.49,20.63 C43.96,20.36 44.58,20.18 45.33,20.1 L45.33,18.36 C44.47,18.43 43.81,18.56 43.34,18.76 C42.92,18.94 42.56,19.18 42.26,19.48 C42.01,19.71 41.77,20.05 41.52,20.51 L41.52,18.63 L39.86,18.63 L39.86,31.71 L41.63,31.71 L41.63,31.71 Z" id="Path" fill="#FFFFFF"></path>
                <path d="M55.74,31.71 L57.91,31.71 L51.77,24.9 L57.53,18.66 L55.44,18.66 L49.68,24.95 L55.74,31.71 Z M49.46,14.06 L47.7,14.06 L47.7,31.71 L49.46,31.71 L49.46,14.06 L49.46,14.06 Z" id="Shape" fill="#FFFFFF"></path>
                <path d="M0.35,36.44 L0.97,36.44 L2.02,39.03 L2.03,39.03 L2.9,36.44 L3.52,36.44 L2.12,40.23 C1.85,40.98 1.44,41.7 0.71,41.7 L0.62,41.7 L0.62,41.22 L0.68,41.22 C1.13,41.22 1.44,40.74 1.62,40.24 L1.77,39.82 L0.35,36.44 Z" id="Path" fill="#FFFFFF"></path>
                <polygon id="Path" fill="#FFFFFF" points="4.73 39.81 4.16 39.81 4.16 36.44 6.89 36.44 6.89 39.81 6.31 39.81 6.31 36.97 4.73 36.97"></polygon>
                <path d="M8.49,36.92 L8.5,36.92 C8.78,36.55 9.19,36.35 9.66,36.35 C10.65,36.35 11.27,37.2 11.27,38.13 C11.27,39.09 10.66,39.9 9.65,39.9 C9.19,39.9 8.77,39.7 8.5,39.33 L8.49,39.33 L8.49,41.7 L7.92,41.7 L7.92,36.44 L8.49,36.44 L8.49,36.92 Z M8.46,38.09 C8.46,38.75 8.85,39.37 9.56,39.37 C10.3,39.37 10.68,38.78 10.68,38.09 C10.68,37.42 10.26,36.87 9.55,36.87 C8.89,36.88 8.46,37.46 8.46,38.09" id="Shape" fill="#FFFFFF"></path>
                <path d="M11.78,38.13 C11.78,37.14 12.56,36.35 13.55,36.35 C14.54,36.35 15.32,37.15 15.32,38.13 C15.32,39.12 14.53,39.9 13.55,39.9 C12.57,39.9 11.78,39.12 11.78,38.13 M12.35,38.13 C12.35,38.82 12.84,39.38 13.55,39.38 C14.26,39.38 14.75,38.82 14.75,38.13 C14.75,37.45 14.26,36.88 13.55,36.88 C12.84,36.88 12.35,37.45 12.35,38.13" id="Shape" fill="#FFFFFF"></path>
                <polygon id="Path" fill="#FFFFFF" points="20.43 40.84 20.43 39.81 16.11 39.81 16.11 36.44 16.68 36.44 16.68 39.28 18.01 39.28 18.01 36.44 18.59 36.44 18.59 39.28 19.92 39.28 19.92 36.44 20.49 36.44 20.49 39.28 21.01 39.28 21.01 40.84"></polygon>
                <path d="M23.17,37.73 L23.83,37.73 C23.79,37.32 23.72,36.88 22.96,36.88 C22.6,36.88 22.24,36.98 22.04,37.14 L21.75,36.71 C22.01,36.5 22.43,36.35 22.9,36.35 C23.98,36.35 24.43,36.92 24.43,37.92 L24.43,39.81 L23.86,39.81 L23.86,39.34 L23.85,39.34 C23.56,39.71 23.23,39.9 22.76,39.9 C22.04,39.9 21.42,39.53 21.42,38.83 C21.4,37.93 22.36,37.73 23.17,37.73 M23.83,38.21 L23.39,38.21 C22.8,38.21 22,38.22 22,38.83 C22,39.19 22.27,39.4 22.8,39.4 C23.47,39.4 23.83,38.96 23.83,38.42 L23.83,38.21 Z" id="Shape" fill="#FFFFFF"></path>
                <path d="M25.36,37.48 C25.36,36.99 25.69,36.45 26.54,36.45 L28.04,36.45 L28.04,39.82 L27.47,39.82 L27.47,38.44 L26.8,38.44 C26.63,38.44 26.49,38.54 26.43,38.68 L26.16,39.27 C26,39.63 25.83,39.82 25.34,39.82 L25.2,39.82 L25.2,39.29 L25.24,39.29 C25.49,39.29 25.57,39.22 25.66,39.01 L25.86,38.55 C25.9,38.45 26,38.39 26.1,38.35 L26.1,38.33 C25.73,38.26 25.36,37.93 25.36,37.48 M27.48,36.92 L26.83,36.92 C26.6,36.92 25.94,36.93 25.94,37.45 C25.94,37.76 26.15,38 26.83,38 L27.48,38 L27.48,36.92 Z" id="Shape" fill="#FFFFFF"></path>
                <path d="M33.62,37.23 C33.46,37.06 33.17,36.88 32.75,36.88 C32.05,36.88 31.56,37.45 31.56,38.13 C31.56,38.8 32.02,39.38 32.72,39.38 C33.29,39.38 33.57,39.1 33.73,38.91 L34.12,39.27 C33.87,39.57 33.4,39.91 32.77,39.91 C31.75,39.91 30.98,39.15 30.98,38.13 C30.98,37.13 31.79,36.35 32.78,36.35 C33.37,36.35 33.82,36.66 33.99,36.84 L33.62,37.23 Z" id="Path" fill="#FFFFFF"></path>
                <path d="M37.25,36.44 L37.25,39.81 L36.68,39.81 L36.68,36.97 L35.46,36.97 L35.46,38.8 C35.46,39.37 35.13,39.8 34.4,39.8 L34.3,39.8 L34.3,39.24 L34.31,39.24 C34.71,39.24 34.88,39.08 34.88,38.54 L34.88,36.43 L37.25,36.43 L37.25,36.44 Z" id="Path" fill="#FFFFFF"></path>
                <path d="M38.01,38.13 C38.01,37.14 38.79,36.35 39.78,36.35 C40.77,36.35 41.55,37.15 41.55,38.13 C41.55,39.12 40.76,39.9 39.78,39.9 C38.8,39.9 38.01,39.12 38.01,38.13 M38.58,38.13 C38.58,38.82 39.07,39.38 39.78,39.38 C40.49,39.38 40.98,38.82 40.98,38.13 C40.98,37.45 40.49,36.88 39.78,36.88 C39.07,36.88 38.58,37.45 38.58,38.13" id="Shape" fill="#FFFFFF"></path>
                <path d="M46.74,39.81 C46.25,39.81 45.97,39.64 45.84,39.26 L45.6,38.52 C45.55,38.37 45.45,38.28 45.28,38.28 L44.72,38.28 L44.72,39.81 L44.15,39.81 L44.15,38.28 L43.6,38.28 C43.43,38.28 43.33,38.37 43.28,38.52 L43.04,39.26 C42.92,39.64 42.64,39.81 42.14,39.81 L42,39.81 L42,39.28 L42.04,39.28 C42.29,39.28 42.46,39.22 42.53,39 L42.77,38.25 C42.82,38.09 42.98,38 43.08,37.98 L43.08,37.97 C42.98,37.93 42.88,37.81 42.83,37.67 L42.68,37.24 C42.62,37.05 42.47,36.98 42.24,36.98 L42.2,36.98 L42.2,36.45 L42.34,36.45 C42.71,36.45 42.98,36.61 43.11,36.93 L43.35,37.58 C43.39,37.69 43.49,37.76 43.59,37.76 L44.15,37.76 L44.15,36.46 L44.72,36.46 L44.72,37.76 L45.28,37.76 C45.38,37.76 45.47,37.69 45.52,37.58 L45.76,36.93 C45.88,36.61 46.15,36.45 46.53,36.45 L46.67,36.45 L46.67,36.98 L46.63,36.98 C46.39,36.98 46.25,37.05 46.19,37.24 L46.04,37.67 C45.99,37.81 45.89,37.93 45.79,37.97 L45.79,37.98 C45.9,38 46.05,38.09 46.1,38.25 L46.35,39 C46.42,39.22 46.59,39.28 46.84,39.28 L46.88,39.28 L46.88,39.81 L46.74,39.81 Z" id="Path" fill="#FFFFFF"></path>
                <polygon id="Path" fill="#FFFFFF" points="48.12 39.81 47.55 39.81 47.55 36.44 48.12 36.44 48.12 37.75 49.78 37.75 49.78 36.44 50.35 36.44 50.35 39.81 49.78 39.81 49.78 38.28 48.12 38.28"></polygon>
                <path d="M51.08,38.13 C51.08,37.14 51.86,36.35 52.85,36.35 C53.84,36.35 54.62,37.15 54.62,38.13 C54.62,39.12 53.83,39.9 52.85,39.9 C51.87,39.9 51.08,39.12 51.08,38.13 M51.66,38.13 C51.66,38.82 52.15,39.38 52.86,39.38 C53.57,39.38 54.06,38.82 54.06,38.13 C54.06,37.45 53.57,36.88 52.86,36.88 C52.14,36.88 51.66,37.45 51.66,38.13" id="Shape" fill="#FFFFFF"></path>
                <path d="M55.7,38.25 C55.71,38.87 56.19,39.37 56.86,39.37 C57.3,39.37 57.61,39.18 57.84,38.86 L58.3,39.13 C57.98,39.59 57.45,39.9 56.82,39.9 C55.79,39.9 55.11,39.13 55.11,38.17 C55.11,37.17 55.69,36.35 56.74,36.35 C57.82,36.35 58.4,37.25 58.34,38.25 L55.7,38.25 L55.7,38.25 Z M57.74,37.76 C57.66,37.27 57.25,36.88 56.75,36.88 C56.26,36.88 55.8,37.27 55.72,37.76 L57.74,37.76 Z" id="Shape" fill="#FFFFFF"></path>
                <polygon id="Path" fill="#FFDD07" points="61.94 0.29 61.94 41.75 103.39 41.75 103.39 41.05 103.39 17.22 103.39 6.38 103.39 1.2 103.39 0.29"></polygon>
                <path d="M83.89,24.99 C90.03,18.74 96.11,12.54 102.18,6.35 C103.93,8.14 105.53,9.77 107.21,11.49 C99.4,19.17 91.49,26.95 83.62,34.7 C78.75,29.82 73.67,24.73 68.58,19.63 C70.16,18.1 71.83,16.49 73.63,14.75 C76.92,18.03 80.32,21.43 83.89,24.99" id="Path" fill="#000000"></path>
            </g>
        </g>
    </g>
</svg>