<svg width="28" height="28" viewBox="0 0 28 28" fill="none" xmlns="http://www.w3.org/2000/svg">
<path d="M26.8 21.3996C26.8 24.5996 24.3 27.0996 21.1 27.0996H6.39999C3.29999 27.0996 0.699982 24.4996 0.699982 21.3996V6.79961C0.699982 3.59961 3.19999 1.09961 6.39999 1.09961H21.2C24.3 1.09961 26.9 3.69961 26.9 6.79961V21.3996H26.8Z" stroke="white" stroke-width="1.2626" stroke-miterlimit="10"/>
<path d="M19 27.1998V17.5998H22.2L22.7 13.8998H19V11.4998C19 10.3998 19.3 9.69981 20.8 9.69981H22.8V6.39981C22.5 6.39981 21.3 6.2998 19.9 6.2998C17.1 6.2998 15.1 7.99981 15.1 11.1998V13.9998H11.9V17.6998H15.1V27.2998H19V27.1998Z" fill="white"/>
</svg>
