<svg width="28" height="28" viewBox="0 0 28 28" fill="none" xmlns="http://www.w3.org/2000/svg">
<path d="M26.7 21.4997C26.7 24.5997 24.2 27.1997 21 27.1997H6.39998C3.29998 27.1997 0.699982 24.6997 0.699982 21.4997V6.89971C0.699982 3.79971 3.19998 1.19971 6.39998 1.19971H21.1C24.2 1.19971 26.8 3.69971 26.8 6.89971V21.4997H26.7Z" stroke="white" stroke-width="1.2626" stroke-miterlimit="10"/>
<path d="M17.6 23.8995H9.79999C6.69999 23.8995 4.29999 21.3995 4.29999 18.3995V9.99951C4.29999 6.89951 6.79999 4.49951 9.79999 4.49951H17.6C20.7 4.49951 23.1 6.99951 23.1 9.99951V18.2995C23.2 21.3995 20.7 23.8995 17.6 23.8995ZM9.79999 5.89951C7.49999 5.89951 5.69999 7.69951 5.69999 9.99951V18.2995C5.69999 20.5995 7.59999 22.3995 9.79999 22.3995H17.6C19.9 22.3995 21.7 20.5995 21.7 18.2995V9.99951C21.7 7.69951 19.9 5.89951 17.6 5.89951H9.79999Z" fill="white"/>
<path d="M13.7 19.2999C10.9 19.2999 8.49998 16.9999 8.49998 14.0999C8.49998 12.6999 9.09998 11.2999 10.1 10.3999C11.1 9.39986 12.4 8.89986 13.7 8.99986C15.3 8.99986 16.6 9.59986 17.6 10.5999C18.5 11.4999 18.9 12.7999 18.9 14.1999C18.9 15.5999 18.3 16.8999 17.4 17.7999C16.4 18.7999 15.1 19.2999 13.7 19.2999ZM13.6 10.6999C12.8 10.6999 12 10.9999 11.4 11.5999C10.7 12.2999 10.3 13.1999 10.3 14.0999C10.3 15.9999 11.8 17.4999 13.7 17.4999C15.6 17.4999 17.1 15.9999 17.1 14.0999C17.2 12.0999 15.9 10.7999 13.6 10.6999Z" fill="white"/>
<path d="M20.2 8.89991C20.2 9.59991 19.7 10.0999 19 10.0999C18.3 10.0999 17.8 9.59991 17.8 8.89991C17.8 8.19991 18.3 7.69991 19 7.69991C19.7 7.59991 20.2 8.19991 20.2 8.89991Z" fill="white"/>
</svg>
