<svg width="24" height="25" viewBox="0 0 24 25" fill="none" xmlns="http://www.w3.org/2000/svg">
<path d="M17.2492 24.0029C16.4741 24.0029 15.7052 23.8654 14.9551 23.5904C11.6485 22.3902 8.57308 20.4275 6.07277 17.9272C3.57246 15.4269 1.60972 12.3515 0.409568 9.04485C0.0220198 7.98222 -0.0904942 6.88209 0.072026 5.78196C0.222045 4.75058 0.622094 3.75046 1.22217 2.88785C1.82849 2.019 2.6411 1.30016 3.56621 0.800098C4.55383 0.268783 5.62897 0 6.76661 0C7.1229 0 7.42294 0.250031 7.49795 0.593822L8.6731 6.08824C8.72935 6.33827 8.64809 6.59455 8.47307 6.77583L6.46032 8.78857C8.36056 12.564 11.4359 15.6394 15.2114 17.5396L17.2242 15.5269C17.4054 15.3456 17.6617 15.2706 17.9117 15.3206L23.4062 16.4958C23.75 16.5708 24 16.8771 24 17.2271C24 18.3647 23.7312 19.4399 23.1999 20.4275C22.6998 21.3526 21.981 22.1652 21.1121 22.7715C20.2495 23.3779 19.2494 23.7779 18.2118 23.9279C17.893 23.9779 17.568 24.0029 17.2492 24.0029ZM6.16653 1.53144C4.66635 1.69396 3.33493 2.48155 2.45357 3.74421C1.4597 5.16313 1.22842 6.90709 1.81599 8.53229C4.12878 14.8956 9.1044 19.8712 15.4677 22.184C17.0929 22.7715 18.8369 22.5403 20.2558 21.5464C21.5184 20.665 22.306 19.3336 22.4686 17.8334L17.9993 16.8771L15.899 18.9773C15.674 19.2023 15.3364 19.2586 15.0489 19.1273C10.5858 17.0333 6.97288 13.4204 4.87887 8.95734C4.74136 8.66981 4.80386 8.33227 5.02889 8.10724L7.1229 6.00073L6.16653 1.53144Z" fill="white"/>
</svg>
