<svg width="28" height="28" viewBox="0 0 28 28" fill="none" xmlns="http://www.w3.org/2000/svg">
<path d="M26.9 21.4996C26.9 24.6996 24.4 27.1996 21.2 27.1996H6.39998C3.29998 27.1996 0.699982 24.5996 0.699982 21.4996V6.79961C0.699982 3.59961 3.19998 1.09961 6.39998 1.09961H21.2C24.3 1.09961 26.9 3.69961 26.9 6.79961V21.4996Z" stroke="white" stroke-width="1.2626" stroke-miterlimit="10"/>
<path d="M9.89996 14.6994L11.3 18.3994L17.4 9.89941L9.89996 14.6994Z" fill="white"/>
<path d="M11.4 12.6997L11.3 15.5997L14.5 12.8997L11.4 12.6997Z" fill="white"/>
<path d="M18.8999 8.8995L6.79995 13.4995C6.49995 13.5995 6.49995 14.0995 6.79995 14.1995L9.89994 15.2995L16.9999 10.6995L11.3999 15.8995L15.8 19.1995C16.3 19.4995 16.9 19.2995 17.1 18.7995L19.4999 9.3995C19.4999 9.0995 19.1999 8.7995 18.8999 8.8995Z" fill="white"/>
</svg>
