<svg width="29" height="28" viewBox="0 0 29 28" fill="none" xmlns="http://www.w3.org/2000/svg">
<path d="M27.8 21.4996C27.8 24.6996 25.3 27.1996 22.1 27.1996H7.29998C4.19998 27.1996 1.59998 24.5996 1.59998 21.4996V6.79961C1.59998 3.59961 4.09998 1.09961 7.29998 1.09961H22.1C25.2 1.09961 27.8 3.69961 27.8 6.79961V21.4996Z" stroke="white" stroke-width="1.2626" stroke-miterlimit="10"/>
<path d="M20.5 14.0998C20.5 14.0998 22.8 11.0998 23 10.0998C23.1 9.69981 22.9 9.49981 22.5 9.49981H20.5C20 9.49981 19.9 9.69981 19.7 9.99981C19.7 9.99981 18.6 12.0998 17.3 13.4998C17 13.8998 16.7 13.9998 16.5 13.9998C16.3 13.9998 16.2 13.8998 16.2 13.4998V9.99981C16.2 9.49981 16.1 9.39981 15.7 9.39981H12.5C12.3 9.39981 12.1 9.49981 12.1 9.69981C12.1 10.1998 12.9 10.2998 12.9 11.4998V13.9998C12.9 14.4998 12.9 14.6998 12.6 14.6998C11.9 14.6998 10.3 12.4998 9.29998 9.99981C9.09998 9.49981 8.89998 9.2998 8.39998 9.2998H6.39998C6.09998 9.2998 5.89998 9.4998 5.89998 9.7998C5.89998 10.2998 6.49998 12.5998 8.99998 15.6998C10.7 17.7998 12.8 18.8998 14.8 18.8998C16 18.8998 16.3 18.6998 16.3 18.1998V16.5998C16.3 16.1998 16.5 15.9998 16.7 15.9998C17 15.9998 17.5 16.0998 18.6 17.0998C19.9 18.2998 20 18.7998 20.8 18.7998H23C23.2 18.7998 23.4 18.6998 23.4 18.2998C23.4 17.7998 22.7 16.9998 21.7 15.9998C21.3 15.4998 20.6 14.8998 20.4 14.6998C20.2 14.4998 20.3 14.3998 20.5 14.0998Z" fill="white"/>
</svg>
