<svg width="29" height="28" viewBox="0 0 29 28" fill="none" xmlns="http://www.w3.org/2000/svg">
<path d="M27.7 21.4996C27.7 24.6996 25.2 27.1996 22 27.1996H7.19997C4.09997 27.1996 1.49997 24.5996 1.49997 21.4996V6.79961C1.49997 3.59961 3.99997 1.09961 7.19997 1.09961H22C25.1 1.09961 27.7 3.69961 27.7 6.79961V21.4996Z" stroke="white" stroke-width="1.2626" stroke-miterlimit="10"/>
<path d="M22.1 10.3997C21.9 9.69971 21.4 9.19971 20.7 8.99971C19.5 8.69971 14.7 8.69971 14.7 8.69971C14.7 8.69971 9.89997 8.69971 8.69997 8.99971C7.99997 9.19971 7.49997 9.69971 7.29997 10.3997C6.99997 11.5997 6.99997 14.0997 6.99997 14.0997C6.99997 14.0997 6.99997 16.5997 7.29997 17.7997C7.49997 18.4997 7.99997 18.9997 8.69997 19.1997C9.89997 19.4997 14.7 19.4997 14.7 19.4997C14.7 19.4997 19.5 19.4997 20.7 19.1997C21.4 18.9997 21.9 18.4997 22.1 17.7997C22.4 16.5997 22.4 14.0997 22.4 14.0997C22.4 14.0997 22.4 11.5997 22.1 10.3997ZM13.1 16.4997V11.8997L17.1 14.1997L13.1 16.4997Z" fill="white"/>
</svg>
