<?xml version="1.0" encoding="UTF-8"?>
<svg width="110px" height="109px" viewBox="0 0 110 109" version="1.1" xmlns="http://www.w3.org/2000/svg" xmlns:xlink="http://www.w3.org/1999/xlink">
    <title>Group</title>
    <g id="Page-1" stroke="none" stroke-width="1" fill="none" fill-rule="evenodd">
        <g id="сайт-весь-блок" transform="translate(-899.000000, -1758.000000)" fill="#6200ED" fill-rule="nonzero">
            <g id="Group" transform="translate(899.000000, 1758.000000)">
                <path d="M40.6,69.2 L24.5,69.2 C24,69.2 23.6,68.9 23.5,68.5 C23.4,68.1 23.5,67.6 23.9,67.3 C25.2,66.3 25.9,64.9 25.9,63.3 C25.9,60.5 23.6,58.3 20.9,58.3 C18.1,58.3 15.9,60.6 15.9,63.3 C15.9,64.9 16.6,66.3 17.9,67.3 C18.3,67.6 18.4,68.1 18.3,68.5 C18.1,68.9 17.7,69.2 17.3,69.2 L1.2,69.2 C0.6,69.2 0.1,68.7 0.1,68.1 L0.1,50.6 C0.1,50.1 0.4,49.7 0.9,49.6 C1.4,49.5 1.9,49.7 2.1,50.1 C3,51.7 4.7,52.7 6.5,52.7 C9.3,52.7 11.5,50.4 11.5,47.7 C11.5,44.9 9.2,42.7 6.5,42.7 C4.7,42.7 3,43.7 2.1,45.3 C1.9,45.7 1.4,45.9 0.9,45.8 C0.4,45.7 0.1,45.2 0.1,44.8 L0.1,28.6 C0.1,28 0.6,27.5 1.2,27.5 L14.7,27.5 C14,26.4 13.7,25.1 13.7,23.8 C13.7,19.9 16.9,16.6 20.9,16.6 C24.9,16.6 28.1,19.8 28.1,23.8 C28.1,25.1 27.8,26.4 27.1,27.5 L40.9,27.5 C41.5,27.5 42,28 42,28.6 L42,41.8 C43.1,41.1 44.5,40.7 45.9,40.7 C49.9,40.7 53.1,43.9 53.1,47.9 C53.1,51.8 49.9,55.1 45.9,55.1 C44.5,55.1 43.2,54.7 42,54 L42,68.4 C41.7,68.7 41.2,69.2 40.6,69.2 Z M26.9,67 L39.6,67 L39.6,51.2 C39.6,50.7 39.9,50.3 40.3,50.2 C40.7,50.1 41.2,50.2 41.5,50.6 C42.4,51.9 44,52.7 45.6,52.7 C48.4,52.7 50.6,50.4 50.6,47.7 C50.6,44.9 48.3,42.7 45.6,42.7 C44,42.7 42.5,43.5 41.5,44.8 C41.2,45.2 40.7,45.3 40.3,45.2 C39.9,45.1 39.6,44.6 39.6,44.2 L39.6,29.6 L24.6,29.6 C24.1,29.6 23.7,29.3 23.6,28.9 C23.4,28.5 23.6,28 23.9,27.7 C25.1,26.7 25.8,25.3 25.8,23.8 C25.8,21 23.5,18.8 20.8,18.8 C18,18.8 15.8,21.1 15.8,23.8 C15.8,25.3 16.5,26.7 17.7,27.7 C18,28 18.2,28.5 18,28.9 C17.8,29.3 17.4,29.6 17,29.6 L2,29.6 L2,42 C3.2,41.1 4.7,40.6 6.3,40.6 C10.2,40.6 13.5,43.8 13.5,47.8 C13.5,51.7 10.3,55 6.3,55 C4.7,55 3.3,54.5 2,53.6 L2,67.2 L14.7,67.2 C14,66.1 13.6,64.8 13.6,63.4 C13.6,59.5 16.8,56.2 20.8,56.2 C24.8,56.2 28,59.4 28,63.4 C28,64.6 27.6,65.9 26.9,67 Z" id="Shape"></path>
                <path d="M40.6,108.8 L24.5,108.8 C24,108.8 23.6,108.5 23.5,108.1 C23.4,107.7 23.5,107.2 23.9,106.9 C25.2,105.9 25.9,104.5 25.9,102.9 C25.9,100.1 23.6,97.9 20.9,97.9 C18.1,97.9 15.9,100.2 15.9,102.9 C15.9,104.5 16.6,105.9 17.9,106.9 C18.3,107.2 18.4,107.7 18.3,108.1 C18.1,108.5 17.7,108.8 17.3,108.8 L1.2,108.8 C0.6,108.8 0.1,108.3 0.1,107.7 L0.1,90.2 C0.1,89.7 0.4,89.3 0.9,89.2 C1.4,89.1 1.9,89.3 2.1,89.7 C3,91.3 4.7,92.3 6.5,92.3 C9.3,92.3 11.5,90 11.5,87.3 C11.5,84.5 9.2,82.3 6.5,82.3 C4.7,82.3 3,83.3 2.1,84.9 C1.9,85.3 1.4,85.5 0.9,85.4 C0.4,85.3 0.1,84.8 0.1,84.4 L0.1,68.2 C0.1,67.6 0.6,67.1 1.2,67.1 L14.7,67.1 C14,66 13.7,64.7 13.7,63.4 C13.7,59.5 16.9,56.2 20.9,56.2 C24.9,56.2 28.1,59.4 28.1,63.4 C28.1,64.7 27.8,66 27.1,67.1 L40.9,67.1 C41.5,67.1 42,67.6 42,68.2 L42,81.4 C43.1,80.7 44.5,80.3 45.9,80.3 C49.9,80.3 53.1,83.5 53.1,87.5 C53.1,91.4 49.9,94.7 45.9,94.7 C44.5,94.7 43.2,94.3 42,93.6 L42,108 C41.7,108.3 41.2,108.8 40.6,108.8 Z M26.9,106.7 L39.6,106.7 L39.6,90.9 C39.6,90.4 39.9,90 40.3,89.9 C40.7,89.8 41.2,89.9 41.5,90.3 C42.4,91.6 44,92.4 45.6,92.4 C48.4,92.4 50.6,90.1 50.6,87.4 C50.6,84.6 48.3,82.4 45.6,82.4 C44,82.4 42.5,83.2 41.5,84.5 C41.2,84.9 40.7,85 40.3,84.9 C39.9,84.8 39.6,84.3 39.6,83.9 L39.6,69.3 L24.6,69.3 C24.1,69.3 23.7,69 23.6,68.6 C23.4,68.2 23.6,67.7 23.9,67.4 C25.1,66.4 25.8,65 25.8,63.5 C25.8,60.7 23.5,58.5 20.8,58.5 C18,58.5 15.8,60.8 15.8,63.5 C15.8,65 16.5,66.4 17.7,67.4 C18,67.7 18.2,68.2 18,68.6 C17.8,69 17.4,69.3 17,69.3 L2,69.3 L2,81.7 C3.2,80.8 4.7,80.3 6.3,80.3 C10.3,80.3 13.5,83.5 13.5,87.5 C13.5,91.4 10.3,94.7 6.3,94.7 C4.7,94.7 3.3,94.2 2,93.3 L2,106.9 L14.7,106.9 C14,105.8 13.6,104.5 13.6,103.1 C13.6,99.2 16.8,95.9 20.8,95.9 C24.8,95.9 28,99.1 28,103.1 C27.9,104.2 27.6,105.5 26.9,106.7 Z" id="Shape"></path>
                <path d="M88.2,57.1 C88,57.1 87.9,57.1 87.7,57 L73.5,49.3 C73.1,49.1 72.9,48.6 73,48.2 C73.1,47.8 73.4,47.4 73.9,47.3 C75.5,47.1 76.8,46.1 77.6,44.7 C78.2,43.5 78.4,42.2 78,40.9 C77.6,39.6 76.8,38.6 75.6,37.9 C74.4,37.2 73.1,37.1 71.8,37.5 C70.5,37.9 69.5,38.7 68.8,39.9 C68,41.3 68,42.9 68.6,44.4 C68.8,44.8 68.7,45.3 68.3,45.6 C68,45.9 67.5,46 67.1,45.8 L52.9,38.1 C52.4,37.8 52.2,37.2 52.5,36.7 L60.8,21.3 C61,20.9 61.5,20.6 62,20.8 C62.5,20.9 62.8,21.3 62.8,21.8 C62.8,23.6 63.8,25.3 65.4,26.2 C67.8,27.5 70.9,26.6 72.2,24.2 C73.5,21.8 72.6,18.7 70.2,17.4 C68.6,16.5 66.7,16.6 65.1,17.6 C64.7,17.9 64.1,17.8 63.8,17.5 C63.4,17.2 63.4,16.6 63.6,16.2 L71.3,1.9 C71.4,1.6 71.7,1.5 71.9,1.4 C72.2,1.3 72.5,1.3 72.7,1.5 L84.6,7.9 C84.6,6.6 84.8,5.3 85.5,4.2 C86.4,2.5 87.9,1.3 89.8,0.7 C91.6,0.1 93.6,0.4 95.3,1.3 C97,2.2 98.2,3.7 98.8,5.6 C99.3,7.4 99.1,9.4 98.2,11.1 C97.6,12.3 96.7,13.2 95.6,13.9 L107.7,20.5 C108,20.6 108.1,20.9 108.2,21.1 C108.3,21.4 108.2,21.7 108.1,21.9 L101.8,33.5 C103.1,33.4 104.5,33.7 105.7,34.3 L105.7,34.3 C109.2,36.2 110.5,40.5 108.6,44 C107.7,45.7 106.2,46.9 104.3,47.5 C102.5,48.1 100.5,47.8 98.8,46.9 C97.6,46.2 96.6,45.2 95.9,44.1 L89,56.8 C89,56.9 88.6,57.1 88.2,57.1 Z M76.7,48.5 L87.8,54.5 L95.3,40.6 C95.5,40.2 96,40 96.4,40.1 C96.9,40.2 97.2,40.5 97.3,41 C97.5,42.6 98.5,44 99.9,44.8 C101.1,45.4 102.4,45.6 103.7,45.2 C105,44.8 106,44 106.7,42.8 C108,40.4 107.1,37.3 104.7,36 C103.3,35.2 101.6,35.2 100.1,35.9 C99.7,36.1 99.2,36 98.9,35.7 C98.6,35.4 98.5,34.9 98.7,34.4 L105.6,21.6 L92.4,14.4 C92,14.2 91.8,13.7 91.9,13.3 C92,12.9 92.3,12.5 92.8,12.4 C94.3,12.1 95.6,11.2 96.3,9.8 C96.9,8.6 97.1,7.3 96.7,6 C96.3,4.7 95.5,3.7 94.3,3 C93.1,2.3 91.8,2.2 90.5,2.6 C89.2,3 88.2,3.8 87.5,5 C86.8,6.3 86.7,7.9 87.3,9.3 C87.5,9.7 87.4,10.2 87,10.5 C86.7,10.8 86.2,10.9 85.8,10.7 L72.8,3.6 L66.9,14.5 C68.4,14.3 69.9,14.6 71.3,15.3 C74.8,17.2 76.1,21.5 74.2,25 C72.3,28.5 68,29.8 64.5,27.9 C63.1,27.2 62.1,26 61.4,24.6 L54.9,36.6 L66,42.6 C65.9,41.3 66.2,40 66.9,38.8 C67.8,37.1 69.3,35.9 71.2,35.3 C73,34.7 75,35 76.7,35.9 C80.2,37.8 81.5,42.1 79.6,45.6 C78.8,46.9 77.8,47.9 76.7,48.5 Z" id="Shape"></path>
                <path d="M80.3,108.8 L64.2,108.8 C63.7,108.8 63.3,108.5 63.2,108.1 C63.1,107.7 63.2,107.2 63.6,106.9 C64.9,105.9 65.6,104.5 65.6,102.9 C65.6,100.1 63.3,97.9 60.6,97.9 C57.8,97.9 55.6,100.2 55.6,102.9 C55.6,104.5 56.3,105.9 57.6,106.9 C58,107.2 58.1,107.7 58,108.1 C57.8,108.5 57.4,108.8 57,108.8 L40.9,108.8 C40.3,108.8 39.8,108.3 39.8,107.7 L39.8,90.2 C39.8,89.7 40.1,89.3 40.6,89.2 C41.1,89.1 41.6,89.3 41.8,89.7 C42.7,91.3 44.4,92.3 46.2,92.3 C49,92.3 51.2,90 51.2,87.3 C51.2,84.5 48.9,82.3 46.2,82.3 C44.4,82.3 42.7,83.3 41.8,84.9 C41.6,85.3 41.1,85.5 40.6,85.4 C40.1,85.3 39.8,84.8 39.8,84.4 L39.8,68.2 C39.8,67.6 40.3,67.1 40.9,67.1 L54.4,67.1 C53.7,66 53.4,64.7 53.4,63.4 C53.4,59.5 56.6,56.2 60.6,56.2 C64.6,56.2 67.8,59.4 67.8,63.4 C67.8,64.7 67.5,66 66.8,67.1 L80.6,67.1 C81.2,67.1 81.7,67.6 81.7,68.2 L81.7,81.4 C82.8,80.7 84.2,80.3 85.6,80.3 C89.6,80.3 92.8,83.5 92.8,87.5 C92.8,91.4 89.6,94.7 85.6,94.7 C84.2,94.7 82.9,94.3 81.7,93.6 L81.7,108 C81.3,108.3 80.8,108.8 80.3,108.8 Z M66.5,106.7 L79.2,106.7 L79.2,90.9 C79.2,90.4 79.5,90 79.9,89.9 C80.3,89.8 80.8,89.9 81.1,90.3 C82,91.6 83.6,92.4 85.2,92.4 C88,92.4 90.2,90.1 90.2,87.4 C90.2,84.6 87.9,82.4 85.2,82.4 C83.6,82.4 82.1,83.2 81.1,84.5 C80.8,84.9 80.3,85 79.9,84.9 C79.5,84.8 79.2,84.3 79.2,83.9 L79.2,69.3 L64.2,69.3 C63.7,69.3 63.3,69 63.2,68.6 C63,68.2 63.2,67.7 63.5,67.4 C64.7,66.4 65.4,65 65.4,63.5 C65.4,60.7 63.1,58.5 60.4,58.5 C57.7,58.5 55.4,60.8 55.4,63.5 C55.4,65 56.1,66.4 57.3,67.4 C57.6,67.7 57.8,68.2 57.6,68.6 C57.4,69 57,69.3 56.6,69.3 L41.8,69.3 L41.8,81.7 C43,80.8 44.5,80.3 46.1,80.3 C50.1,80.3 53.3,83.5 53.3,87.5 C53.3,91.4 50.1,94.7 46.1,94.7 C44.5,94.7 43.1,94.2 41.8,93.3 L41.8,106.9 L54.5,106.9 C53.8,105.8 53.4,104.5 53.4,103.1 C53.4,99.2 56.6,95.9 60.6,95.9 C64.6,95.9 67.8,99.1 67.8,103.1 C67.6,104.2 67.2,105.5 66.5,106.7 Z" id="Shape"></path>
            </g>
        </g>
    </g>
</svg>