<?xml version="1.0" encoding="UTF-8"?>
<svg width="62px" height="110px" viewBox="0 0 62 110" version="1.1" xmlns="http://www.w3.org/2000/svg" xmlns:xlink="http://www.w3.org/1999/xlink">
    <title>Group</title>
    <g id="Page-1" stroke="none" stroke-width="1" fill="none" fill-rule="evenodd">
        <g id="сайт-весь-блок" transform="translate(-611.000000, -1758.000000)" fill="#6200ED" fill-rule="nonzero">
            <g id="Group" transform="translate(611.000000, 1758.000000)">
                <path d="M21.6,11.8 C22.4,11.8 23,11.2 23,10.4 C23,9.6 22.4,9 21.6,9 C20.8,9 20.2,9.6 20.2,10.4 C20.3,11.2 20.9,11.8 21.6,11.8 Z" id="Path"></path>
                <path d="M32.7,98.1 C32.2,98.1 29.7,98.1 29.2,98.1 C28.1,98.1 27.2,99 27.2,100.1 C27.2,101.2 28.1,102.1 29.2,102.1 C29.7,102.1 32.2,102.1 32.7,102.1 C33.8,102.1 34.7,101.2 34.7,100.1 C34.7,99 33.8,98.1 32.7,98.1 Z" id="Path"></path>
                <path d="M28.1,11.8 L41.4,11.8 C42.2,11.8 42.8,11.2 42.8,10.4 C42.8,9.6 42.2,9 41.4,9 L28.1,9 C27.3,9 26.7,9.6 26.7,10.4 C26.8,11.2 27.4,11.8 28.1,11.8 Z" id="Path"></path>
                <path d="M53.1,0.7 L8.8,0.7 C4.3,0.7 0.6,4.4 0.6,8.9 L0.6,101.3 C0.6,105.8 4.3,109.5 8.8,109.5 L53.1,109.5 C57.6,109.5 61.3,105.8 61.3,101.3 L61.3,8.9 C61.3,4.4 57.6,0.7 53.1,0.7 Z M58.9,101.3 C58.9,104.5 56.3,107.1 53.1,107.1 L8.8,107.1 C5.6,107.1 3,104.5 3,101.3 L3,8.9 C3,5.7 5.6,3.1 8.8,3.1 L53.1,3.1 C56.3,3.1 58.9,5.7 58.9,8.9 L58.9,101.3 Z" id="Shape"></path>
                <path d="M50.4,89.9 L11.5,89.9 C10.8,89.9 10.3,90.4 10.3,91.1 C10.3,91.8 10.8,92.3 11.5,92.3 L50.4,92.3 C51.1,92.3 51.6,91.8 51.6,91.1 C51.6,90.5 51,89.9 50.4,89.9 Z" id="Path"></path>
                <path d="M52.1,17.5 L9.7,17.5 C9,17.5 8.5,18 8.5,18.7 C8.5,19.4 9,19.9 9.7,19.9 L52.1,19.9 C52.8,19.9 53.3,19.4 53.3,18.7 C53.4,18.1 52.8,17.5 52.1,17.5 Z" id="Path"></path>
                <path d="M15.4,69.5 C15.4,70.1 15.9,70.6 16.5,70.6 L23.6,70.6 C24.2,70.6 24.7,70.1 24.7,69.5 L24.7,62.4 C24.7,61.8 24.2,61.3 23.6,61.3 L16.5,61.3 C15.9,61.3 15.4,61.8 15.4,62.4 L15.4,69.5 Z M17.6,63.5 L22.5,63.5 L22.5,68.4 L17.6,68.4 L17.6,63.5 Z" id="Shape"></path>
                <path d="M23.7,39.6 L16.6,39.6 C16,39.6 15.5,40.1 15.5,40.7 L15.5,47.8 C15.5,48.4 16,48.9 16.6,48.9 L23.7,48.9 C24.3,48.9 24.8,48.4 24.8,47.8 L24.8,40.7 C24.8,40.1 24.3,39.6 23.7,39.6 Z M22.6,46.8 L17.7,46.8 L17.7,41.9 L22.6,41.9 L22.6,46.8 Z" id="Shape"></path>
                <path d="M46.4,40.7 C46.4,40.1 45.9,39.6 45.3,39.6 L38.2,39.6 C37.6,39.6 37.1,40.1 37.1,40.7 L37.1,47.8 C37.1,48.4 37.6,48.9 38.2,48.9 L45.3,48.9 C45.9,48.9 46.4,48.4 46.4,47.8 L46.4,40.7 Z M44.2,46.8 L39.3,46.8 L39.3,41.9 L44.2,41.9 L44.2,46.8 Z" id="Shape"></path>
                <path d="M27.6,39.6 C27,39.6 26.5,40.1 26.5,40.7 L26.5,44.3 C26.5,44.9 27,45.4 27.6,45.4 L30.9,45.4 C31.5,45.4 32,44.9 32,44.3 C32,43.7 31.5,43.2 30.9,43.2 L28.7,43.2 L28.7,40.7 C28.7,40.1 28.2,39.6 27.6,39.6 Z" id="Path"></path>
                <path d="M16.5,52.8 L19,52.8 C19.6,52.8 20.1,52.3 20.1,51.7 C20.1,51.1 19.6,50.6 19,50.6 L16.5,50.6 C15.9,50.6 15.4,51.1 15.4,51.7 C15.4,52.3 15.9,52.8 16.5,52.8 Z" id="Path"></path>
                <path d="M26.5,50.6 L23.6,50.6 C23,50.6 22.5,51.1 22.5,51.7 L22.5,55.2 C22.5,55.8 23,56.3 23.6,56.3 C24.2,56.3 24.7,55.8 24.7,55.2 L24.7,52.8 L27.6,52.8 C28.2,52.8 28.7,52.3 28.7,51.7 L28.7,47.9 C28.7,47.3 28.2,46.8 27.6,46.8 C27,46.8 26.5,47.3 26.5,47.9 L26.5,50.6 Z" id="Path"></path>
                <path d="M35.4,51.7 L35.4,47.9 C35.4,47.3 34.9,46.8 34.3,46.8 L30.9,46.8 C30.3,46.8 29.8,47.3 29.8,47.9 C29.8,48.5 30.3,49 30.9,49 L33.2,49 L33.2,50.6 L30.9,50.6 C30.3,50.6 29.8,51.1 29.8,51.7 L29.8,54.1 L27.6,54.1 C27,54.1 26.5,54.6 26.5,55.2 L26.5,58.4 C26.5,59 27,59.5 27.6,59.5 C28.2,59.5 28.7,59 28.7,58.4 L28.7,56.3 L30.9,56.3 C31.5,56.3 32,55.8 32,55.2 L32,52.8 L34.3,52.8 C34.9,52.8 35.4,52.3 35.4,51.7 Z" id="Path"></path>
                <path d="M34.3,39.6 L32.6,39.6 C32,39.6 31.5,40.1 31.5,40.7 C31.5,41.3 32,41.8 32.6,41.8 L33.2,41.8 L33.2,44.3 C33.2,44.9 33.7,45.4 34.3,45.4 C34.9,45.4 35.4,44.9 35.4,44.3 L35.4,40.7 C35.4,40.1 34.9,39.6 34.3,39.6 Z" id="Path"></path>
                <path d="M15.4,58.4 C15.4,59 15.9,59.5 16.5,59.5 C17.1,59.5 17.6,59 17.6,58.4 L17.6,55.2 C17.6,54.6 17.1,54.1 16.5,54.1 C15.9,54.1 15.4,54.6 15.4,55.2 L15.4,58.4 Z" id="Path"></path>
                <path d="M23.7,58.1 L21.9,58.1 L21.9,55.9 C21.9,55.3 21.4,54.8 20.8,54.8 C20.2,54.8 19.7,55.3 19.7,55.9 L19.7,59.2 C19.7,59.8 20.2,60.3 20.8,60.3 L23.7,60.3 C24.3,60.3 24.8,59.8 24.8,59.2 C24.8,58.6 24.3,58.1 23.7,58.1 Z" id="Path"></path>
                <path d="M27.6,63.5 L30.9,63.5 C31.5,63.5 32,63 32,62.4 L32,59.2 C32,58.6 31.5,58.1 30.9,58.1 C30.3,58.1 29.8,58.6 29.8,59.2 L29.8,61.3 L27.6,61.3 C27,61.3 26.5,61.8 26.5,62.4 C26.5,63 27,63.5 27.6,63.5 Z" id="Path"></path>
                <path d="M27.6,68.4 C27,68.4 26.5,68.9 26.5,69.5 C26.5,70.1 27,70.6 27.6,70.6 L30.9,70.6 C31.5,70.6 32,70.1 32,69.5 L32,65.9 C32,65.3 31.5,64.8 30.9,64.8 L27.6,64.8 C27,64.8 26.5,65.3 26.5,65.9 C26.5,66.5 27,67 27.6,67 L29.9,67 L29.9,68.4 L27.6,68.4 Z" id="Path"></path>
                <path d="M38.2,54.2 L40.4,54.2 C41,54.2 41.5,53.7 41.5,53.1 C41.5,52.5 41,52 40.4,52 L38.2,52 C37.6,52 37.1,52.5 37.1,53.1 C37.1,53.7 37.6,54.2 38.2,54.2 Z" id="Path"></path>
                <path d="M45.3,70.6 C45.9,70.6 46.4,70.1 46.4,69.5 L46.4,66.8 C46.4,66.2 45.9,65.7 45.3,65.7 L42.8,65.7 L42.8,62.4 C42.8,61.8 42.3,61.3 41.7,61.3 C41.1,61.3 40.6,61.8 40.6,62.4 L40.6,66.8 C40.6,67.4 41.1,67.9 41.7,67.9 L44.2,67.9 L44.2,69.5 C44.2,70.1 44.7,70.6 45.3,70.6 Z" id="Path"></path>
                <path d="M38.2,67.1 C38.8,67.1 39.3,66.6 39.3,66 C39.3,65.4 38.8,64.9 38.2,64.9 L36.3,64.9 C35.7,64.9 35.2,65.4 35.2,66 L35.2,68.5 L34.4,68.5 C33.8,68.5 33.3,69 33.3,69.6 C33.3,70.2 33.8,70.7 34.4,70.7 L38.3,70.7 C38.9,70.7 39.4,70.2 39.4,69.6 C39.4,69 38.9,68.5 38.3,68.5 L37.5,68.5 L37.5,67.1 L38.2,67.1 Z" id="Path"></path>
                <path d="M37.1,61.3 L35.4,61.3 L35.4,55.1 C35.4,54.5 34.9,54 34.3,54 C33.7,54 33.2,54.5 33.2,55.1 L33.2,62.4 C33.2,63 33.7,63.5 34.3,63.5 L38.2,63.5 C38.8,63.5 39.3,63 39.3,62.4 L39.3,57.6 C39.3,57 38.8,56.5 38.2,56.5 C37.6,56.5 37.1,57 37.1,57.6 L37.1,61.3 L37.1,61.3 Z" id="Path"></path>
                <path d="M46.4,56.7 C46.4,56.1 45.9,55.6 45.3,55.6 C44.7,55.6 44.2,56.1 44.2,56.7 L44.2,57.2 L41.7,57.2 C41.1,57.2 40.6,57.7 40.6,58.3 C40.6,58.9 41.1,59.4 41.7,59.4 L44.2,59.4 L44.2,62.3 C44.2,62.9 44.7,63.4 45.3,63.4 C45.9,63.4 46.4,62.9 46.4,62.3 L46.4,56.7 Z" id="Path"></path>
                <path d="M46.4,51.5 C46.4,50.9 45.9,50.4 45.3,50.4 L43.5,50.4 C42.9,50.4 42.4,50.9 42.4,51.5 C42.4,52.1 42.9,52.6 43.5,52.6 L44.2,52.6 L44.2,53.5 C44.2,54.1 44.7,54.6 45.3,54.6 C45.9,54.6 46.4,54.1 46.4,53.5 L46.4,51.5 L46.4,51.5 Z" id="Path"></path>
                <path d="M20.2,33.9 L10.8,33.9 C10.1,33.9 9.6,34.4 9.6,35.1 L9.6,44.5 C9.6,45.2 10.1,45.7 10.8,45.7 C11.5,45.7 12,45.2 12,44.5 L12,36.3 L20.2,36.3 C20.9,36.3 21.4,35.8 21.4,35.1 C21.4,34.4 20.9,33.9 20.2,33.9 Z" id="Path"></path>
                <path d="M51.1,33.9 L41.7,33.9 C41,33.9 40.5,34.4 40.5,35.1 C40.5,35.8 41,36.3 41.7,36.3 L49.9,36.3 L49.9,44.5 C49.9,45.2 50.4,45.7 51.1,45.7 C51.8,45.7 52.3,45.2 52.3,44.5 L52.3,35.1 C52.3,34.4 51.8,33.9 51.1,33.9 Z" id="Path"></path>
                <path d="M20.2,76.5 C20.9,76.5 21.4,76 21.4,75.3 C21.4,74.6 20.9,74.1 20.2,74.1 L12,74.1 L12,65.9 C12,65.2 11.5,64.7 10.8,64.7 C10.1,64.7 9.6,65.2 9.6,65.9 L9.6,75.3 C9.6,76 10.1,76.5 10.8,76.5 L20.2,76.5 Z" id="Path"></path>
                <path d="M51,64.7 C50.3,64.7 49.8,65.2 49.8,65.9 L49.8,74.1 L41.6,74.1 C40.9,74.1 40.4,74.6 40.4,75.3 C40.4,76 40.9,76.5 41.6,76.5 L51,76.5 C51.7,76.5 52.2,76 52.2,75.3 L52.2,65.9 C52.2,65.3 51.7,64.7 51,64.7 Z" id="Path"></path>
            </g>
        </g>
    </g>
</svg>