<svg width="59" height="113" viewBox="0 0 59 113" fill="none" xmlns="http://www.w3.org/2000/svg">
<path d="M3.99982 101.7C3.99982 101.7 4.59981 101.3 5.89981 102.1C7.19981 102.9 7.2998 103.9 7.2998 103.9L6.49982 105.9L2.7998 104.5L3.99982 101.7Z" fill="#C9C9C9"/>
<path d="M2.80017 104.399L0.700195 107.299L7.30017 112.399C7.30017 112.399 7.50017 111.299 7.30017 109.699C7.10017 108.099 7.00017 107.499 6.80017 106.699C6.50017 105.899 6.50018 105.899 6.50018 105.899C6.50018 105.899 6.1002 105.299 4.7002 104.699C3.4002 104.199 2.80017 104.399 2.80017 104.399Z" fill="#00042F"/>
<path d="M1.49996 107.299C0.699958 107.099 0.59997 107.199 0.69997 108.199C0.89997 109.199 0.89997 109.999 1.69997 110.599C2.49997 111.199 5.49997 112.599 6.69997 112.799C7.89997 112.899 6.99996 111.299 6.09996 110.099C5.19996 108.899 2.09996 107.399 1.49996 107.299Z" fill="#242440"/>
<path d="M3.79981 101.3C3.79981 101.3 3.09982 101.599 4.99982 102.699C6.89982 103.799 7.89982 104.399 7.99982 103.599C8.09982 102.799 6.59983 101.4 6.59983 101.4L4.19983 100.699L3.79981 101.3Z" fill="#0E4380"/>
<path d="M32.5999 103.199C32.5999 103.199 31.7999 105.999 31.9999 106.699C32.1999 107.299 32.2999 107.899 35.1999 107.599C38.0999 107.299 42.4999 106.699 43.7999 106.099C45.0999 105.599 45.1999 103.999 44.5999 103.199C43.9999 102.399 42.5999 102.2 40.3999 102C38.1999 101.8 37.3999 101.5 37.3999 101.5L34.1999 102.4L32.5999 103.199Z" fill="#00042F"/>
<path d="M32.6001 101.8V103.2C32.6001 103.2 33.2001 103.9 35.0001 103.4C36.8001 102.8 37.4001 101.6 37.4001 101.6L37.1001 99.5996L34.5001 100.6L32.6001 101.8Z" fill="#C9C9C9"/>
<path d="M12.4998 48.8994C12.4998 48.8994 11.3998 58.1994 11.1998 63.0994C10.9998 67.9994 11.8998 74.5994 11.1998 76.7994C10.4998 78.9994 6.69981 84.2994 5.89981 90.0994C5.09981 95.8994 3.7998 101.299 3.7998 101.299C3.7998 101.299 4.39981 100.799 5.89981 101.399C7.39981 101.999 7.99982 103.499 7.99982 103.499C7.99982 103.499 9.69982 96.4994 11.5998 93.3994C13.4998 90.3994 14.1998 86.4993 15.2998 83.6993C16.3998 80.8993 18.3998 78.6993 18.8998 76.6993C19.3998 74.6993 20.9998 64.3994 21.5998 64.2994C22.1998 64.2994 24.5998 68.5994 26.7998 71.7994C28.9998 75.0994 30.9998 77.4994 30.8998 79.8994C30.6998 82.2994 29.4998 85.0994 30.3998 88.2994C31.2998 91.5994 32.1998 96.0993 32.2998 98.1993C32.3998 100.299 32.1998 101.299 32.1998 101.299C32.1998 101.299 33.6998 102.199 35.4998 101.599C37.2998 100.899 37.4998 99.6993 37.4998 99.6993C37.4998 99.6993 38.6998 92.5994 38.8998 88.5994C38.9998 84.5994 38.5998 82.4994 38.3998 80.0994C38.1998 77.6994 38.4998 72.3994 37.0998 67.3994C35.6998 62.3994 34.0998 59.6993 33.0998 56.6993C32.0998 53.6993 31.0998 49.8994 31.0998 49.8994L12.4998 48.8994Z" fill="#1F3E81"/>
<path d="M4.99982 45.8996C4.99982 45.8996 5.09982 46.3995 4.89982 47.1995C4.69982 47.9995 4.29982 48.1996 4.49982 49.3996C4.69982 50.5996 4.69982 51.2995 5.39982 51.6995C6.09982 52.0995 7.69982 51.9996 8.89982 51.2996C10.1998 50.6996 10.2998 50.3996 10.1998 49.2996C10.0998 48.2996 10.0998 48.1996 9.89982 47.2996C9.59982 46.3996 9.09982 45.1996 8.89982 44.8996C8.69982 44.5996 8.99983 44.4995 8.69983 44.5995C8.39983 44.6995 4.99982 45.8996 4.99982 45.8996Z" fill="#E06E7F"/>
<path d="M49.5 8.59952C49.5 8.59952 51.1 7.29949 51.4 6.69949C51.7 6.09949 51.6 5.79952 52.3 4.59952C53 3.29952 53.6 2.59949 54 2.19949C54.4 1.79949 55.2 0.399517 56 0.599517C56.8 0.799517 56.1 1.39949 55.8 1.69949C55.5 1.99949 55.2 2.59949 55.3 2.69949C55.4 2.79949 56.6 3.09957 57.4 3.39957C58.2 3.69957 58.4 4.19952 58.6 4.59952C58.8 4.89952 59.1 6.29957 58.5 6.89957C57.9 7.49957 57.2 7.59952 57.1 7.59952C57 7.59952 56.3 8.49954 55.7 8.99954C55.1 9.49954 54.8 9.19949 54.4 9.69949C53.9 10.1995 52.9 12.1995 52.9 12.1995L49.5 8.59952Z" fill="#E06E7F"/>
<path d="M9.70009 20.1995C8.10009 22.6995 7.00007 26.7995 5.40007 29.8995C3.80007 32.9995 2.80009 34.3995 2.70009 36.6995C2.60009 38.9995 4.80006 45.8995 4.80006 45.8995C4.80006 45.8995 5.30009 46.2995 7.20009 45.9995C9.10009 45.6995 9.30006 44.7996 9.30006 44.7996C9.30006 44.7996 8.10008 38.0995 8.60008 36.9995C9.10008 35.7995 10.3001 34.8995 11.0001 33.9995C11.7001 32.9995 12.3001 31.8995 12.3001 31.8995L9.70009 20.1995Z" fill="#DE8A02"/>
<path d="M38.4002 80.3995C38.2002 77.9995 38.5002 72.6995 37.1002 67.6995C35.7002 62.6995 34.1002 59.9995 33.1002 56.9995C32.1002 53.9995 31.1002 50.1995 31.1002 50.1995L12.5002 48.7996C12.5002 48.7996 12.4002 49.6995 12.2002 51.1995C13.4002 51.8995 15.7002 52.0995 20.1002 53.1995C25.9002 54.5995 24.8002 57.2995 26.9002 60.4995C28.9002 63.5995 33.6002 71.8995 34.7002 79.0995C35.7002 86.2995 35.0002 89.2995 34.8002 93.3995C34.7002 96.2995 34.8002 99.9995 34.9002 102C35.1002 102 35.2002 101.9 35.4002 101.9C37.2002 101.2 37.4002 99.9995 37.4002 99.9995C37.4002 99.9995 38.6002 92.8995 38.8002 88.8995C39.1002 84.7995 38.6002 82.6995 38.4002 80.3995Z" fill="#102D6B"/>
<path d="M21.6998 64.3995C21.6998 64.3995 21.7998 64.3995 21.7998 64.4995C21.1998 63.7995 20.1998 62.6995 19.2998 61.5995C17.8998 59.8995 17.5998 58.7996 17.5998 58.7996C17.5998 58.7996 17.2998 66.1996 16.3998 70.2996C15.4998 74.3996 15.4998 76.0996 14.0998 78.7996C12.6998 81.3996 11.0998 86.0995 9.89981 90.3995C8.99981 93.4995 7.2998 98.6995 6.2998 101.5C7.5998 102.2 8.09982 103.5 8.09982 103.5C8.09982 103.5 9.79983 96.4995 11.6998 93.3995C13.5998 90.3995 14.2998 86.4995 15.3998 83.6995C16.4998 80.8995 18.4998 78.6995 18.9998 76.6995C19.4998 74.6995 21.0998 64.3995 21.6998 64.3995Z" fill="#102D6B"/>
<path d="M31.5999 49.6996C31.5999 50.4996 30.5999 53.6997 22.5999 52.3997C14.5999 50.9997 12.5999 49.9996 12.3999 49.1996C12.2999 48.3996 11.9999 44.1997 12.0999 40.4997C12.1999 36.6997 11.5999 33.4996 11.0999 31.6996C10.6999 29.8996 7.79991 23.8997 9.59991 20.3997C11.3999 16.7997 16.3999 17.9997 17.0999 17.9997C17.7999 18.0997 18.1999 18.1996 18.1999 18.1996C18.1999 18.1996 18.2999 21.3997 21.8999 21.3997C25.4999 21.3997 26.1999 20.9997 26.1999 20.9997C26.1999 20.9997 27.1999 21.3997 28.8999 21.2997C30.5999 21.2997 34.3999 18.9997 36.8999 17.5997C39.3999 16.1997 41.0999 15.9996 42.5999 14.6996C44.0999 13.3996 49.3999 8.69963 49.3999 8.69963C49.3999 8.69963 50.1999 8.39963 51.4999 9.19963C52.7999 9.99963 53.1999 12.5997 53.1999 12.5997C53.1999 12.5997 48.8999 18.8997 45.2999 21.2997C41.6999 23.6997 37.3999 26.2996 35.3999 29.1996C33.3999 32.0996 31.4999 36.3996 31.2999 40.1996C30.9999 43.9996 31.5999 49.6996 31.5999 49.6996Z" fill="#F8B002"/>
<path d="M52.5001 13.5995C52.5001 13.5995 52.6001 12.4995 51.0001 11.0995C49.4001 9.69949 48.4001 9.69946 48.4001 9.69946C47.9001 10.1995 47.3001 10.6996 46.6001 11.2996C46.6001 11.2996 47.7001 10.9995 49.3001 12.6995C50.9001 14.3995 51.0001 15.5995 51.0001 15.6995C51.5001 14.7995 52.1001 14.0995 52.5001 13.5995Z" fill="#DDE3EB"/>
<path d="M18.2998 17.9995C18.2998 17.9995 19.3998 17.5995 19.3998 16.0995C19.3998 14.5995 18.0998 13.1995 17.9998 10.5995C17.8998 7.99952 17.3998 6.69949 18.4998 5.19949C19.6998 3.59949 20.8998 2.69954 22.9998 2.49954C25.0998 2.29954 26.6998 2.49949 27.6998 3.19949C28.6998 3.89949 29.4998 5.39959 29.6998 6.29959C30.2998 8.59959 30.4998 12.3995 29.8998 14.0995C29.2998 15.7995 27.7998 16.5995 27.3998 17.1995C27.0998 17.8995 26.1998 20.7996 26.1998 20.7996C26.1998 20.7996 23.9998 22.3996 20.4998 21.3996C17.0998 20.4996 18.2998 17.9995 18.2998 17.9995Z" fill="#E06E7F"/>
<path d="M30.1998 6.19934L29.9998 6.89941C29.9998 6.89941 29.0998 8.49937 28.9998 9.09937C28.8998 9.69937 29.0998 11.3994 29.0998 11.3994H28.5998C28.5998 11.3994 27.5997 10.4994 26.7997 11.5994C25.9997 12.6994 26.4998 14.1993 26.4998 14.1993C26.4998 14.1993 24.1998 15.6994 21.8998 15.5994C19.5998 15.4994 18.8998 14.8994 18.8998 14.8994C18.8998 14.8994 17.2998 12.6994 17.1998 8.89941C17.0998 6.19941 16.8997 4.99944 18.7997 3.29944C20.6997 1.49944 22.4998 1.39941 24.3998 1.39941C26.2998 1.39941 28.7998 2.09934 30.0998 3.69934C31.2998 4.09934 30.1998 6.19934 30.1998 6.19934Z" fill="black"/>
<path opacity="0.6" d="M52.1001 9.69946C50.3001 11.8995 46.8001 15.7995 43.6001 17.8995C39.0001 20.9995 32.6001 22.0996 30.0001 26.7996C27.4001 31.4996 26.0001 47.4995 27.0001 50.8995C27.2001 51.5995 27.7001 52.0995 28.3001 52.3995C31.0001 51.7995 31.5001 50.0995 31.5001 49.5995C31.5001 49.5995 31.0001 43.8995 31.2001 40.0995C31.5001 36.2995 33.4001 31.9995 35.3001 29.0995C37.3001 26.1995 41.6001 23.5995 45.2001 21.1995C48.8001 18.7995 53.1001 12.4995 53.1001 12.4995C53.1001 12.4995 52.9001 10.7995 52.1001 9.69946Z" fill="#DE8A02"/>
</svg>
