<?xml version="1.0" encoding="UTF-8"?>
<svg width="115px" height="103px" viewBox="0 0 115 103" version="1.1" xmlns="http://www.w3.org/2000/svg" xmlns:xlink="http://www.w3.org/1999/xlink">
    <title>Group</title>
    <g id="Page-1" stroke="none" stroke-width="1" fill="none" fill-rule="evenodd">
        <g id="сайт-весь-блок" transform="translate(-1173.000000, -1763.000000)" fill="#6200ED" fill-rule="nonzero">
            <g id="Group" transform="translate(1173.000000, 1763.000000)">
                <path d="M43.5,92.6 C43.9,91.7 44.5,91 45.3,90.4 C46.1,89.9 47,89.6 48.1,89.6 C48.8,89.6 49.4,89.7 50,90 C50.9,90.4 51.6,91 52.2,91.8 C52.7,92.6 53,93.5 53,94.6 C53,95.3 52.9,95.9 52.6,96.5 C52.2,97.4 51.6,98.1 50.8,98.7 C50,99.3 49.1,99.5 48,99.5 C47.3,99.5 46.7,99.4 46.1,99.1 C45.2,98.7 44.5,98.1 43.9,97.3 C43.4,96.5 43.1,95.6 43.1,94.5 C43.1,93.8 43.3,93.2 43.5,92.6 L43.5,92.6 Z M43.5,101.2 C44.8,102.1 46.4,102.6 48,102.6 C49.1,102.6 50.2,102.4 51.2,102 C52.7,101.4 53.9,100.3 54.8,99.1 C55.7,97.8 56.2,96.2 56.2,94.5 C56.2,93.4 56,92.3 55.6,91.3 C55,89.8 53.9,88.6 52.6,87.7 C51.3,86.8 49.7,86.3 48.1,86.3 C47,86.3 45.9,86.5 44.9,86.9 C43.4,87.5 42.2,88.6 41.3,89.8 C40.4,91.1 39.9,92.7 39.9,94.4 C39.9,95.5 40.1,96.6 40.5,97.6 C41.2,99.1 42.2,100.4 43.5,101.2 L43.5,101.2 Z" id="Shape"></path>
                <path d="M96.2,96.4 C95.8,97.3 95.2,98 94.4,98.6 C93.6,99.1 92.7,99.4 91.6,99.4 C90.9,99.4 90.3,99.3 89.7,99 C88.8,98.6 88.1,98 87.5,97.2 C87,96.4 86.7,95.5 86.7,94.4 C86.7,93.7 86.8,93.1 87.1,92.5 C87.5,91.6 88.1,90.9 88.9,90.3 C89.7,89.8 90.6,89.5 91.7,89.5 C92.4,89.5 93,89.6 93.6,89.9 C94.5,90.3 95.2,90.9 95.8,91.7 C96.3,92.5 96.6,93.4 96.6,94.5 C96.6,95.2 96.4,95.8 96.2,96.4 L96.2,96.4 Z M96.2,87.8 C94.9,86.9 93.3,86.4 91.7,86.4 C90.6,86.4 89.5,86.6 88.5,87 C87,87.6 85.8,88.7 84.9,89.9 C84,91.2 83.5,92.8 83.5,94.5 C83.5,95.6 83.7,96.7 84.1,97.7 C84.7,99.2 85.8,100.4 87.1,101.3 C88.4,102.2 90,102.7 91.6,102.7 C92.7,102.7 93.8,102.5 94.8,102.1 C96.3,101.5 97.5,100.4 98.4,99.2 C99.3,97.9 99.8,96.3 99.8,94.6 C99.8,93.5 99.6,92.4 99.2,91.4 C98.5,89.9 97.5,88.6 96.2,87.8 L96.2,87.8 Z" id="Shape"></path>
                <path d="M98.1,26.2 C98.3,25.6 98.7,25.1 99.2,24.8 C99.7,24.5 100.3,24.3 101,24.3 C101.4,24.3 101.8,24.4 102.2,24.6 C102.8,24.8 103.2,25.2 103.6,25.7 C104,26.2 104.1,26.8 104.1,27.5 C104.1,27.9 104,28.3 103.8,28.7 C103.6,29.3 103.2,29.8 102.7,30.1 C102.2,30.4 101.6,30.6 100.9,30.6 C100.5,30.6 100.1,30.5 99.7,30.3 C99.1,30.1 98.7,29.7 98.3,29.2 C97.9,28.7 97.8,28.1 97.8,27.4 C97.9,26.9 98,26.5 98.1,26.2 L98.1,26.2 Z M97.5,32.6 C98.5,33.3 99.8,33.7 101.1,33.7 C102,33.7 102.8,33.5 103.6,33.2 C104.7,32.7 105.7,31.9 106.4,30.9 C107.1,29.9 107.5,28.6 107.5,27.3 C107.5,26.4 107.3,25.6 107,24.8 C106.5,23.7 105.7,22.7 104.7,22 C103.7,21.3 102.4,20.9 101.1,20.9 C100.2,20.9 99.4,21.1 98.6,21.4 C97.5,21.9 96.5,22.7 95.8,23.7 C95.1,24.7 94.7,26 94.7,27.3 C94.7,28.2 94.9,29 95.2,29.8 C95.6,31 96.4,32 97.5,32.6 L97.5,32.6 Z" id="Shape"></path>
                <path d="M52.2,8 C52,8.6 51.6,9.1 51.1,9.4 C50.6,9.7 50,9.9 49.3,9.9 C48.9,9.9 48.5,9.8 48.1,9.6 C47.5,9.4 47.1,9 46.7,8.5 C46.3,8 46.2,7.4 46.2,6.7 C46.2,6.3 46.3,5.9 46.5,5.5 C46.7,4.9 47.1,4.4 47.6,4.1 C48.1,3.8 48.7,3.6 49.4,3.6 C49.8,3.6 50.2,3.7 50.6,3.9 C51.2,4.1 51.6,4.5 52,5 C52.4,5.5 52.5,6.1 52.5,6.8 C52.5,7.3 52.4,7.7 52.2,8 L52.2,8 Z M52.9,1.6 C51.9,0.9 50.6,0.5 49.3,0.5 C48.4,0.5 47.6,0.7 46.8,1 C45.7,1.5 44.7,2.3 44,3.3 C43.3,4.3 42.9,5.6 42.9,6.9 C42.9,7.8 43.1,8.6 43.4,9.4 C43.9,10.5 44.7,11.5 45.7,12.2 C46.7,12.9 48,13.3 49.3,13.3 C50.2,13.3 51,13.1 51.8,12.8 C52.9,12.3 53.9,11.5 54.6,10.5 C55.3,9.5 55.7,8.2 55.7,6.9 C55.7,6 55.5,5.2 55.2,4.4 C54.7,3.2 53.9,2.2 52.9,1.6 L52.9,1.6 Z" id="Shape"></path>
                <path d="M70.3,10.4 C71.1,8.4 72.5,6.7 74.3,5.5 C76.1,4.3 78.2,3.6 80.5,3.6 C82,3.6 83.5,3.9 84.8,4.5 C86.8,5.3 88.5,6.7 89.7,8.5 C90.9,10.3 91.6,12.4 91.6,14.7 C91.6,16.2 91.3,17.7 90.7,19 C89.9,21 88.5,22.7 86.7,23.9 C84.9,25.1 82.8,25.8 80.5,25.8 C79,25.8 77.5,25.5 76.2,24.9 C74.2,24.1 72.5,22.7 71.3,20.9 C70.1,19.1 69.4,17 69.4,14.7 C69.4,13.2 69.8,11.7 70.3,10.4 L70.3,10.4 Z M72.5,26.5 C74.8,28 77.5,28.9 80.5,28.9 C82.5,28.9 84.3,28.5 86,27.8 C88.6,26.7 90.7,24.9 92.3,22.6 C93.8,20.3 94.7,17.6 94.7,14.6 C94.7,12.6 94.3,10.8 93.6,9 C92.5,6.4 90.7,4.3 88.4,2.7 C86.1,1.2 83.4,0.3 80.4,0.3 C78.4,0.3 76.6,0.7 74.9,1.4 C72.3,2.5 70.2,4.3 68.6,6.6 C67.1,8.9 66.2,11.6 66.2,14.6 C66.2,16.6 66.6,18.4 67.3,20.2 C68.4,22.8 70.2,25 72.5,26.5 L72.5,26.5 Z" id="Shape"></path>
                <path d="M78.9,16.3 L78.9,23.1 C78.9,24 79.6,24.7 80.5,24.7 C81.4,24.7 82.1,24 82.1,23.1 L82.1,16.3 L88.8,16.3 C89.7,16.3 90.4,15.6 90.4,14.7 C90.4,13.8 89.7,13.1 88.8,13.1 L82.1,13.1 L82.1,6.4 C82.1,5.5 81.4,4.8 80.5,4.8 C79.6,4.8 78.9,5.5 78.9,6.4 L78.9,13.1 L72.2,13.1 C71.3,13.1 70.6,13.8 70.6,14.7 C70.6,15.6 71.3,16.3 72.2,16.3 L78.9,16.3 L78.9,16.3 Z" id="Path"></path>
                <path d="M64.7,55.8 L62.6,66.4 L41.7,66.4 C40.8,66.4 40.1,67.1 40.1,68 C40.1,68.9 40.8,69.6 41.7,69.6 L62,69.6 L59.7,81.5 L37.2,81.5 C37,81.5 36.8,81.4 36.7,81.3 C36.6,81.2 36.4,81.1 36.4,80.9 L26.1,55.8 L64.7,55.8 L64.7,55.8 Z M71,40 L82.8,40 L80.4,52.5 L68.6,52.5 L71,40 L71,40 Z M46.8,33.8 C47.6,33.2 48.5,32.7 49.5,32.3 C50.5,32 51.5,31.8 52.6,31.8 C53.7,31.8 54.7,32 55.7,32.3 C57.2,32.8 58.5,33.7 59.5,34.8 C60,35.4 60.5,36.1 60.9,36.8 L44.4,36.8 C44.9,35.6 45.7,34.6 46.8,33.8 L46.8,33.8 Z M110.5,40.1 C110.7,40.2 110.8,40.3 110.9,40.4 C111,40.5 111.1,40.7 111.1,40.9 C111.1,41 111.1,41 111.1,41.1 L111.1,41.1 L108.6,52.5 L98.7,52.5 L101.1,40 L110.1,40 C110.3,40 110.4,40.1 110.5,40.1 L110.5,40.1 Z M102.6,80.7 C102.6,80.9 102.4,81.1 102.3,81.2 C102.1,81.3 101.9,81.4 101.7,81.4 L93.1,81.4 L95.4,69.5 L105,69.5 L102.6,80.7 L102.6,80.7 Z M77.1,69.6 L74.8,81.5 L63,81.5 L65.3,69.6 L77.1,69.6 L77.1,69.6 Z M77.7,66.4 L65.9,66.4 L68,55.8 L79.8,55.8 L77.7,66.4 L77.7,66.4 Z M78,81.4 L80.3,69.5 L92.1,69.5 L89.8,81.4 L78,81.4 L78,81.4 Z M105.7,66.4 L96,66.4 L98.1,55.8 L108,55.8 L105.7,66.4 L105.7,66.4 Z M94.8,55.8 L92.7,66.4 L80.9,66.4 L83,55.8 L94.8,55.8 L94.8,55.8 Z M97.9,40 L95.5,52.5 L83.7,52.5 L86.1,40 L97.9,40 L97.9,40 Z M2,35.5 L2,35.5 L13.4,35.5 C13.6,35.5 13.8,35.6 13.9,35.7 C14,35.8 14.2,35.9 14.2,36.1 L21.9,54.8 L21.9,54.8 L33.1,82.1 C33.4,82.9 34,83.5 34.6,84 C35.3,84.4 36.1,84.7 36.9,84.7 L60.8,84.7 L60.8,84.7 L75.9,84.7 L75.9,84.7 L91,84.7 L91,84.7 L101.5,84.7 C102.5,84.7 103.4,84.4 104.1,83.8 C104.8,83.2 105.3,82.4 105.6,81.4 L108.3,68.9 C108.5,68.6 108.6,68.3 108.6,68 C108.6,67.9 108.6,67.8 108.6,67.7 L111.4,54.5 L111.4,54.5 L114.1,41.8 L114.1,41.8 C114.2,41.5 114.2,41.2 114.2,40.9 C114.2,40.3 114.1,39.8 113.9,39.3 C113.6,38.6 113.1,37.9 112.4,37.5 C111.7,37.1 110.9,36.8 110.1,36.8 L99.7,36.8 L99.7,36.8 L84.6,36.8 L84.6,36.8 L69.5,36.8 L69.5,36.8 L64.2,36.8 C63.4,34.6 62,32.7 60.2,31.2 C58.1,29.5 55.4,28.5 52.4,28.5 C49.4,28.5 46.8,29.5 44.6,31.2 C42.8,32.6 41.4,34.6 40.6,36.8 L33.5,36.8 C32.6,36.8 31.9,37.5 31.9,38.4 C31.9,39.3 32.6,40 33.5,40 L67.6,40 L65.2,52.5 L24.5,52.5 L17.2,34.8 C16.9,34 16.3,33.4 15.7,32.9 C15,32.5 14.2,32.2 13.4,32.2 L2,32.2 C1.1,32.2 0.4,32.9 0.4,33.8 C0.4,34.8 1.2,35.5 2,35.5 L2,35.5 Z" id="Shape"></path>
            </g>
        </g>
    </g>
</svg>