<?xml version="1.0" encoding="UTF-8"?>
<svg width="91px" height="92px" viewBox="0 0 91 92" version="1.1" xmlns="http://www.w3.org/2000/svg" xmlns:xlink="http://www.w3.org/1999/xlink">
    <title>Shape</title>
    <g id="Page-1" stroke="none" stroke-width="1" fill="none" fill-rule="evenodd">
        <g id="сайт-весь-блок" transform="translate(-894.000000, -1327.000000)" fill="#6200ED" fill-rule="nonzero">
            <path d="M985,1373 C985,1348 964.7,1327.7 939.7,1327.7 C914.7,1327.7 894.4,1348 894.4,1373 C894.4,1386.2 900.1,1398.1 909.1,1406.3 L909.1,1406.3 L910.6,1407.5 C910.7,1407.6 910.8,1407.6 910.9,1407.7 C911.7,1408.3 912.5,1409 913.3,1409.5 C913.6,1409.7 913.8,1409.9 914.1,1410.1 C915,1410.7 915.9,1411.3 916.8,1411.8 C917,1411.9 917.2,1412 917.4,1412.1 C918.4,1412.7 919.4,1413.2 920.5,1413.7 C920.6,1413.7 920.7,1413.8 920.7,1413.8 C924.1,1415.4 927.8,1416.6 931.7,1417.3 C931.8,1417.3 931.9,1417.3 932,1417.4 C933.2,1417.6 934.4,1417.8 935.6,1417.9 C935.7,1417.9 935.9,1417.9 936,1417.9 C937.2,1418 938.4,1418.1 939.7,1418.1 C940.9,1418.1 942.2,1418 943.4,1417.9 C943.6,1417.9 943.7,1417.9 943.9,1417.9 C945.1,1417.8 946.3,1417.6 947.5,1417.4 C947.6,1417.4 947.7,1417.4 947.8,1417.3 C951.6,1416.6 955.2,1415.5 958.6,1413.9 C958.7,1413.8 958.9,1413.8 959,1413.7 C960,1413.2 961,1412.7 962,1412.2 C962.2,1412.1 962.5,1411.9 962.7,1411.8 C963.6,1411.3 964.5,1410.7 965.3,1410.1 C965.6,1409.9 965.9,1409.7 966.2,1409.5 C966.9,1409 967.6,1408.4 968.3,1407.9 C968.5,1407.8 968.6,1407.7 968.8,1407.6 L970.3,1406.3 L970.3,1406.3 C979.3,1398.2 985,1386.3 985,1373 L985,1373 Z M897.8,1373 C897.8,1349.8 916.6,1331 939.8,1331 C963,1331 981.8,1349.8 981.8,1373 C981.8,1385.5 976.3,1396.7 967.7,1404.4 C967.2,1404.1 966.7,1403.8 966.2,1403.5 L952.3,1396.5 C951.1,1395.9 950.3,1394.6 950.3,1393.2 L950.3,1388.3 C950.6,1387.9 951,1387.5 951.3,1387 C953.1,1384.4 954.6,1381.6 955.6,1378.6 C957.7,1377.6 959,1375.5 959,1373.2 L959,1367.4 C959,1366 958.5,1364.6 957.5,1363.5 L957.5,1355.8 C957.6,1355 957.9,1350.1 954.4,1346.1 C951.4,1342.6 946.5,1340.9 939.8,1340.9 C933.1,1340.9 928.2,1342.7 925.2,1346.1 C921.7,1350.1 922,1354.9 922.1,1355.8 L922.1,1363.5 C921.2,1364.6 920.6,1366 920.6,1367.4 L920.6,1373.2 C920.6,1375 921.4,1376.7 922.8,1377.9 C924.1,1383.1 926.9,1387.1 927.9,1388.4 L927.9,1393.2 C927.9,1394.5 927.2,1395.8 926,1396.4 L913,1403.5 C912.6,1403.7 912.2,1404 911.8,1404.3 C903.2,1396.6 897.8,1385.4 897.8,1373 L897.8,1373 Z M964.4,1407 C963.8,1407.4 963.2,1407.8 962.6,1408.2 C962.3,1408.4 962.1,1408.5 961.8,1408.7 C961,1409.2 960.2,1409.6 959.4,1410.1 C959.2,1410.2 959.1,1410.3 958.9,1410.4 C957,1411.3 955.1,1412.2 953.1,1412.8 C953,1412.8 953,1412.9 952.9,1412.9 C951.9,1413.2 950.8,1413.5 949.8,1413.8 L949.8,1413.8 C948.7,1414.1 947.6,1414.3 946.6,1414.5 C946.6,1414.5 946.5,1414.5 946.5,1414.5 C945.5,1414.7 944.4,1414.8 943.4,1414.9 C943.2,1414.9 943,1414.9 942.8,1414.9 C941.8,1415 940.8,1415 939.7,1415 C938.7,1415 937.6,1414.9 936.6,1414.9 C936.4,1414.9 936.2,1414.9 936.1,1414.9 C935.1,1414.8 934,1414.7 933,1414.5 L932.9,1414.5 C930.7,1414.1 928.6,1413.6 926.5,1412.9 C926.4,1412.9 926.4,1412.8 926.3,1412.8 C925.3,1412.5 924.2,1412.1 923.2,1411.6 C923.2,1411.6 923.2,1411.6 923.2,1411.6 C922.2,1411.2 921.3,1410.7 920.4,1410.3 C920.3,1410.2 920.2,1410.2 920,1410.1 C919.2,1409.7 918.3,1409.2 917.5,1408.7 C917.3,1408.5 917,1408.4 916.8,1408.2 C916,1407.7 915.3,1407.2 914.6,1406.7 C914.5,1406.6 914.5,1406.6 914.4,1406.5 L914.6,1406.4 L927.6,1399.3 C929.8,1398.1 931.2,1395.7 931.2,1393.2 L931.2,1387.3 L930.8,1386.8 C930.8,1386.8 927.2,1382.4 925.9,1376.6 L925.8,1375.9 L925.2,1375.5 C924.4,1375 923.9,1374.1 923.9,1373.2 L923.9,1367.4 C923.9,1366.6 924.2,1365.9 924.8,1365.4 L925.3,1364.9 L925.3,1355.7 L925.3,1355.5 C925.3,1355.5 924.8,1351.5 927.6,1348.3 C930,1345.6 934.1,1344.2 939.7,1344.2 C945.3,1344.2 949.4,1345.6 951.8,1348.3 C954.6,1351.4 954.1,1355.5 954.1,1355.5 L954.1,1364.9 L954.6,1365.4 C955.2,1365.9 955.5,1366.7 955.5,1367.4 L955.5,1373.2 C955.5,1374.4 954.7,1375.4 953.6,1375.8 L952.8,1376.1 L952.5,1376.9 C951.5,1379.9 950.2,1382.7 948.4,1385.2 C948,1385.8 947.6,1386.4 947.2,1386.8 L946.8,1387.3 L946.8,1393.4 C946.8,1396.1 948.3,1398.4 950.6,1399.6 L964.5,1406.6 C964.6,1406.6 964.7,1406.7 964.8,1406.7 C964.7,1406.7 964.5,1406.9 964.4,1407 L964.4,1407 Z" id="Shape"></path>
        </g>
    </g>
</svg>