<?xml version="1.0" encoding="utf-8"?>
<!-- Generator: Adobe Illustrator 23.0.0, SVG Export Plug-In . SVG Version: 6.00 Build 0)  -->
<svg version="1.1" id="Слой_1" xmlns="http://www.w3.org/2000/svg" xmlns:xlink="http://www.w3.org/1999/xlink" x="0px" y="0px"
	 viewBox="0 0 162.7 158.7" style="enable-background:new 0 0 162.7 158.7;" xml:space="preserve">
<style type="text/css">
	.st0{fill:#6200ED;}
</style>
<g>
	<g id="NewGroupe0_2_">
		<g id="NewGroup2-0">
			<g>
				<path class="st0" d="M148.8,96.7l-1.5-1.6c-0.6-0.7-1.5-1-2.3-1c-0.9,0-1.8,0.3-2.4,0.9l-5.3,5l-24.6,23.3c0,0,0,0,0,0
					c0,0,0,0,0,0c0,0,0,0-0.1,0.1c0,0,0,0,0,0c0,0,0,0.1-0.1,0.1c0,0,0,0,0,0l-4.6,7.4c0,0.1-0.1,0.1-0.1,0.2c0,0.1-0.1,0.2-0.1,0.3
					c-0.2,0.8,0,1.6,0.6,2.2c0.5,0.5,1.1,0.7,1.7,0.7c0.3,0,0.6-0.1,0.8-0.2c0.1,0,0.1-0.1,0.2-0.1l7.6-4.3c0,0,0,0,0,0
					c0,0,0.1,0,0.1-0.1c0,0,0,0,0,0c0,0,0.1,0,0.1-0.1c0,0,0,0,0,0c0,0,0,0,0,0l24.6-23.3l5.3-5C150,100.2,150,98,148.8,96.7z
					 M111,131l2.8-4.5l1.2,1.3l0.6,0.6L111,131z M117.9,126.8l-1.3-1.3l-1.1-1.1l22.6-21.4l2.4,2.5L117.9,126.8z M146.7,99.4
					l-4.3,4.1l-2.4-2.5l4.3-4.1c0.2-0.2,0.3-0.2,0.4-0.2c0.1,0,0.3,0,0.4,0.2l1.5,1.6C147,98.8,147,99.2,146.7,99.4z"/>
				<path class="st0" d="M96.7,104.3c-1.7-0.3-2.7,1.7-3.2,2.6c-0.7,1.2-1.3,2.8-1.9,4.3c-0.6,1.4-1.2,2.8-1.6,3.4
					c-0.3,0.5-0.6,0.5-0.7,0.5c-1.1,0-3.3-1.5-5.6-4.9c-1-1.5-2.3-1.8-3.2-1.8c-1.7,0-3.7,1-5.9,3.1c-1.5,1.4-2.6,2.9-2.6,2.9
					c-0.5,0.6-0.4,1.5,0.3,2c0.6,0.5,1.5,0.4,2-0.3c1.5-2,4.5-4.9,6.2-4.9h0c0.3,0,0.6,0.1,0.9,0.6c1.3,1.8,4.6,6.1,8,6.1
					c0,0,0.1,0,0.1,0c0.9,0,2.2-0.4,3.1-1.9c0.5-0.8,1.1-2.2,1.8-3.8c0.4-1.1,1.1-2.7,1.7-3.9c0.1,0.6,0.1,1.5,0.1,2.6
					c0,0.8,0.7,1.4,1.4,1.4h0c0.8,0,1.4-0.7,1.4-1.5C98.9,106.9,98.5,104.6,96.7,104.3L96.7,104.3z"/>
				<path class="st0" d="M123.6,46.6H70.1c-3.5,0-6.3,2.8-6.3,6.3v66.4c0,3.4,2.8,6.2,6.2,6.2h35.2c0,0,0.1,0,0.1,0c0,0,0,0,0.1,0
					c0,0,0.1,0,0.1,0c0,0,0,0,0.1,0c0,0,0,0,0.1,0c0,0,0,0,0.1,0c0,0,0,0,0.1,0c0,0,0,0,0.1,0c0,0,0,0,0.1,0c0,0,0,0,0.1,0
					c0,0,0,0,0.1,0c0,0,0,0,0.1,0c0,0,0,0,0.1,0c0,0,0,0,0.1,0c0,0,0,0,0,0l23.4-22.8c0,0,0,0,0,0c0,0,0,0,0.1-0.1c0,0,0,0,0,0
					c0,0,0,0,0-0.1c0,0,0,0,0-0.1c0,0,0,0,0,0c0-0.1,0.1-0.1,0.1-0.2c0,0,0,0,0,0c0,0,0,0,0,0c0-0.1,0-0.1,0.1-0.2c0,0,0,0,0,0
					c0,0,0,0,0-0.1c0,0,0,0,0-0.1c0,0,0,0,0-0.1c0,0,0-0.1,0-0.1V67.1c0-0.1,0-0.1,0-0.2V52.9C130,49.4,127.1,46.6,123.6,46.6z
					 M106.5,120.9v-9.5c0-0.3,0-0.6,0-0.9l0-0.1c0-0.1,0-0.1,0-0.2l0,0c0-0.1,0-0.2,0-0.3c0-0.1,0-0.1,0-0.2l0-0.1c0,0,0,0,0-0.1
					c0,0,0,0,0,0c0-0.1,0-0.1,0.1-0.2c0,0,0,0,0,0c0,0,0,0,0,0c0-0.1,0-0.2,0.1-0.2l0-0.1c0-0.1,0-0.1,0-0.2c0,0,0,0,0,0
					c0-0.1,0.1-0.2,0.1-0.3c0,0,0,0,0-0.1c0,0,0,0,0,0l0,0c0,0,0-0.1,0-0.1c0-0.1,0.1-0.3,0.2-0.4c0,0,0-0.1,0.1-0.2
					c0,0,0-0.1,0-0.1c0,0,0-0.1,0.1-0.1l0.1-0.2c0,0,0,0,0,0l-1.2-0.7l1.2,0.7l0,0c0,0,0,0,0,0c0,0,0,0,0,0l0,0c0,0,0-0.1,0.1-0.1
					c0,0,0,0,0,0c0,0,0,0,0-0.1l0,0c0,0,0-0.1,0.1-0.1l0,0c0.1-0.1,0.1-0.2,0.2-0.3c0,0,0,0,0,0c0,0,0.1-0.1,0.1-0.1l0.1-0.1l0,0
					c0.1-0.2,0.2-0.3,0.4-0.4c0,0,0,0,0,0c0-0.1,0.1-0.1,0.1-0.2c0.1-0.1,0.1-0.1,0.2-0.2l0.2-0.2c0,0,0,0,0,0c0,0,0.1-0.1,0.1-0.1
					c0,0,0,0,0,0c0,0,0.1-0.1,0.1-0.1l0.1-0.1c0.1,0,0.1-0.1,0.1-0.1l0.1-0.1c0,0,0,0,0.1,0c0.1-0.1,0.2-0.2,0.3-0.2
					c0.3-0.3,0.7-0.5,1-0.7c0,0,0,0,0.1,0c0,0,0.1,0,0.1,0c0,0,0,0,0.1,0c0,0,0.1,0,0.1-0.1c0,0,0.1,0,0.1,0c0.1,0,0.1,0,0.1-0.1
					l0,0c0,0,0,0,0,0c0,0,0.1,0,0.1,0c0,0,0.1,0,0.1-0.1c0.1,0,0.1,0,0.2-0.1c0,0,0,0,0,0c0,0,0.1,0,0.1,0c0,0,0.1,0,0.1,0l0.2-0.1
					c0.2-0.1,0.4-0.1,0.7-0.2c0,0,0,0,0.1,0c0.1,0,0.2,0,0.2-0.1c0,0,0,0,0,0c0.2,0,0.3-0.1,0.5-0.1c0.2,0,0.3,0,0.5-0.1l0.2,0
					c0,0,0,0,0,0c0,0,0.1,0,0.1,0l0.1,0c0,0,0.1,0,0.1,0l0.1,0c0.1,0,0.2,0,0.3,0h10L106.5,120.9z M127.2,66.6c0,0.1,0,0.1,0,0.2
					V100h-12.1c-0.1,0-0.2,0-0.3,0c0,0,0,0,0,0l-0.1,0c-0.1,0-0.2,0-0.2,0c0,0,0,0,0,0l-0.1,0c-0.1,0-0.1,0-0.2,0l-0.2,0
					c-0.2,0-0.4,0-0.6,0.1c-0.2,0-0.4,0.1-0.6,0.1c-0.1,0-0.2,0-0.3,0.1c0,0,0,0,0,0c-0.3,0.1-0.6,0.2-1,0.3l-0.2,0.1c0,0,0,0-0.1,0
					l-0.1,0c-0.1,0-0.1,0-0.2,0.1c-0.1,0-0.2,0.1-0.3,0.1c0,0,0,0,0,0c0,0-0.1,0-0.1,0c0,0-0.1,0-0.1,0c0,0-0.1,0-0.1,0l-0.1,0
					c0,0-0.1,0-0.1,0.1c0,0-0.1,0-0.1,0l0,0c-0.1,0-0.1,0.1-0.2,0.1c0,0,0,0,0,0l-0.1,0c-0.1,0-0.1,0.1-0.2,0.1
					c-0.5,0.3-0.9,0.6-1.4,0.9c-0.1,0.1-0.2,0.2-0.4,0.3c0,0,0,0,0,0l0,0c0,0,0,0,0,0l-0.1,0.1c-0.1,0-0.1,0.1-0.2,0.2c0,0,0,0,0,0
					l-0.1,0.1c-0.1,0-0.1,0.1-0.2,0.1c-0.1,0.1-0.1,0.1-0.2,0.2l-0.2,0.2c-0.1,0.1-0.2,0.2-0.3,0.3c-0.1,0.1-0.1,0.2-0.2,0.2
					c-0.2,0.2-0.3,0.4-0.5,0.6c0,0,0,0,0,0l0,0c-0.1,0.1-0.1,0.2-0.2,0.2c-0.1,0.2-0.2,0.3-0.3,0.5l0,0c0,0,0,0,0,0
					c0,0,0,0.1-0.1,0.1l0,0c0,0.1-0.1,0.2-0.1,0.2c0,0,0,0.1-0.1,0.1l-0.1,0.1c0,0,0,0,0,0.1l0,0.1c0,0,0,0.1-0.1,0.1c0,0,0,0,0,0
					c0,0.1-0.1,0.2-0.1,0.3c-0.1,0.2-0.2,0.4-0.2,0.5c0,0,0,0,0,0.1c0,0,0,0.1,0,0.1l0,0c0,0,0,0,0,0.1c0,0,0,0,0,0
					c-0.1,0.2-0.1,0.3-0.2,0.4c0,0,0,0.1,0,0.1c0,0.1,0,0.1-0.1,0.2l0,0.1c0,0,0,0,0,0c0,0.1,0,0.2-0.1,0.3c0,0,0,0.1,0,0.2
					c0,0.1,0,0.2-0.1,0.3c0,0,0,0.1,0,0.1l0,0.1c0,0.1,0,0.2,0,0.3c0,0.1,0,0.2,0,0.3l0,0c0,0,0,0,0,0c0,0.1,0,0.2,0,0.2l0,0.1
					c0,0,0,0,0,0c0,0.4-0.1,0.8-0.1,1.2v11.4H70c-1.9,0-3.5-1.6-3.5-3.5V52.9c0-2,1.6-3.6,3.6-3.6h53.5c2,0,3.6,1.6,3.6,3.6V66.6z"
					/>
				<path class="st0" d="M116.2,65c0,0.8-0.6,1.4-1.4,1.4H79c-0.8,0-1.4-0.6-1.4-1.4s0.6-1.4,1.4-1.4h35.8
					C115.5,63.6,116.2,64.2,116.2,65z"/>
				<path class="st0" d="M116.2,74.1c0,0.8-0.6,1.4-1.4,1.4H79c-0.8,0-1.4-0.6-1.4-1.4s0.6-1.4,1.4-1.4h35.8
					C115.5,72.7,116.2,73.3,116.2,74.1z"/>
				<path class="st0" d="M116.2,83.2c0,0.8-0.6,1.4-1.4,1.4H79c-0.8,0-1.4-0.6-1.4-1.4c0-0.8,0.6-1.4,1.4-1.4h35.8
					C115.5,81.8,116.2,82.4,116.2,83.2z"/>
				<path class="st0" d="M116.2,92.2c0,0.8-0.6,1.4-1.4,1.4H79c-0.8,0-1.4-0.6-1.4-1.4s0.6-1.4,1.4-1.4h35.8
					C115.5,90.8,116.2,91.5,116.2,92.2z"/>
			</g>
		</g>
	</g>
	<g id="NewGroup2-0_1_">
		<g>
			<path class="st0" d="M107,25.6H53.5c-3.5,0-6.3,2.8-6.3,6.3v66.4c0,3.4,2.8,6.2,6.2,6.2h11.6v-2.8H53.3c-1.9,0-3.5-1.6-3.5-3.5
				V31.9c0-2,1.6-3.6,3.6-3.6H107c2,0,3.6,1.6,3.6,3.6v13.7c0,0.1,0,0.1,0,0.2v3.4h2.8v-3.2c0-0.1,0-0.1,0-0.2V31.9
				C113.3,28.4,110.5,25.6,107,25.6z M64.9,49.3v52.5h1.6V52.9c0-2,1.6-3.6,3.6-3.6h40.4v0H64.9z"/>
		</g>
	</g>
	<g>
		<g>
			<path class="st0" d="M45.2,119.4c-0.3,0-0.5-0.1-0.7-0.3l-4.1-4.1c-0.4-0.4-0.4-1,0-1.4l4.1-4.1c0.4-0.4,1-0.4,1.4,0
				c0.4,0.4,0.4,1,0,1.4l-3.4,3.4l3.4,3.4c0.4,0.4,0.4,1,0,1.4C45.8,119.3,45.5,119.4,45.2,119.4z"/>
		</g>
		<g>
			<path class="st0" d="M57.5,115.3H41.1c-0.6,0-1-0.5-1-1s0.5-1,1-1h16.3c0.6,0,1,0.5,1,1S58,115.3,57.5,115.3z"/>
		</g>
	</g>
	<g>
		<g>
			<path class="st0" d="M132.1,30.9c0.3,0,0.5,0.1,0.7,0.3l4.1,4.1c0.4,0.4,0.4,1,0,1.4l-4.1,4.1c-0.4,0.4-1,0.4-1.4,0
				c-0.4-0.4-0.4-1,0-1.4l3.4-3.4l-3.4-3.4c-0.4-0.4-0.4-1,0-1.4C131.6,31,131.8,30.9,132.1,30.9z"/>
		</g>
		<g>
			<path class="st0" d="M119.8,35h16.3c0.6,0,1,0.5,1,1s-0.5,1-1,1h-16.3c-0.6,0-1-0.5-1-1S119.3,35,119.8,35z"/>
		</g>
	</g>
	<g>
		<g>
			<g>
				<path class="st0" d="M39.2,62.8H21.4V50.7h17.8V62.8z M23.2,60.9h14v-8.3h-14V60.9z"/>
			</g>
			<g>
				<path class="st0" d="M39.2,92.2H21.4V64.4h17.8V92.2z M23.2,90.4h14V66.2h-14V90.4z"/>
			</g>
		</g>
		<g>
			<path class="st0" d="M32.1,83.6c0,1-0.8,1.8-1.8,1.8c-1,0-1.8-0.8-1.8-1.8c0-1,0.8-1.8,1.8-1.8C31.3,81.8,32.1,82.6,32.1,83.6z"
				/>
			<rect x="29.8" y="72.4" class="st0" width="1.1" height="10.9"/>
			<polygon class="st0" points="30.3,69.7 32,73.1 28.7,73.1 			"/>
			<g>
				<polygon class="st0" points="30.2,79.8 26.1,78.4 26.1,75.4 27,75.4 27,77.7 30.5,78.8 				"/>
			</g>
			<g>
				<polygon class="st0" points="30.5,78.3 30.2,77.4 33.6,76.3 33.6,74 34.6,74 34.6,77 				"/>
			</g>
			<path class="st0" d="M27.8,75.4c0-0.7-0.6-1.3-1.3-1.3c-0.7,0-1.3,0.6-1.3,1.3c0,0.7,0.6,1.3,1.3,1.3
				C27.2,76.7,27.8,76.1,27.8,75.4z"/>
			<rect x="33" y="73.1" class="st0" width="2.2" height="2.2"/>
		</g>
	</g>
</g>
</svg>
