<svg width="47" height="111" viewBox="0 0 47 111" fill="none" xmlns="http://www.w3.org/2000/svg">
<path d="M38.9 96.3C38.9 96.3 40.6 98.3 42.1 99.2C43.6 100.1 46.3 101.7 46 102.9C45.7 104.1 43.2 103.9 41.9 103.4C40.6 102.9 39.2 102.4 37.1 101.7C35 101.1 34.1 101 33.6 100C33 99 34.3 96.3 34.3 96.3H38.9Z" fill="#00042F"/>
<path d="M18.9 102.6C18.9 102.6 20.7 104.2 22 105.7C22.8 106.7 24.7 108.6 23.9 109.9C23.1 111.1 20.4 110.4 17.3 108C14.3 105.7 13.7 104.9 13.7 104.3C13.7 103.7 15 101.3 15.4 101.7C15.9 101.9 18.9 102.6 18.9 102.6Z" fill="#00042F"/>
<path d="M38.7 96.0001C38.7 96.1001 38.7 97.0001 38.7 97.0001C38.7 97.0001 38.1 97.4001 36.3 97.2001C34.5 97.0001 34 96.4001 34 96.4001L34.4 95.1001L38.7 96.0001Z" fill="#EDF3FF"/>
<path d="M19 102.1C19 102.2 18.9 103.6 18.9 103.6C18.9 103.6 18.4 104.2 17.4 104.2C16.4 104.2 15.7 103.7 15.3 103.1C15 102.5 15.1 102.2 15.1 102.2L15.4 100.3L19 102.1Z" fill="#EDF3FF"/>
<path d="M36 51C36 51 38.1 56.5 39.4 61.9C40.7 67.2 41.4 72 41.3 75.9C41.2 79.8 40.9 83.6 40.3 87.2C39.7 90.9 38.9 96.5 38.9 96.5C38.9 96.5 38.1 96.9 36.2 96.5C34.3 96.1 34.1 95.6 34.1 95.6C34.1 95.6 34 90.8 33.5 88.1C33 85.4 33.1 82.3 33.5 81.2C33.9 80 34.4 79.2 34.1 77.4C33.8 75.5 30.5 70.3 29.6 68.1C28.7 65.8 27.7 62.6 27.1 62.6C26.5 62.6 25.8 69.3 25.7 71.2C25.6 73.1 25.6 78.5 25.1 80.2C24.6 81.9 23.9 84.1 23.2 85.3C22.6 86.5 22.4 86.9 22.2 88.4C22 89.9 21.8 91.6 21.3 92.8C20.8 94 20 95.3 19.8 96.8C19.6 98.3 19.2 102.5 19.2 102.5C19.2 102.5 18.1 104.1 16.1 102.6C15.2 101.9 15.2 100.9 15.2 100.9C15.2 100.9 14.4 93.6 14.6 90.3C14.8 87 17 83.4 17.3 82.3C17.6 81.1 17.5 78.8 16.8 73.6C16.2 68.5 15.9 63.4 15.9 60.3C15.9 57.2 16.8 52.5 16.8 52.5L28 52.4L36 51Z" fill="#FFB12B"/>
<path opacity="0.6" d="M16.1 102.3C15.2 101.6 15.2 100.6 15.2 100.6C15.2 100.6 14.4 93.2999 14.6 89.9999C14.8 86.6999 17 83.0999 17.3 81.9999C17.6 80.7999 17.5 78.4999 16.8 73.2999C16.2 68.1999 15.9 63.0999 15.9 59.9999C15.9 56.8999 16.8 52.1998 16.8 52.1998L28 52.0999L36 50.8999C36 50.8999 36.3 51.5999 36.7 52.7999C35 53.5999 32.6 54.6999 31 54.8999C28.3 55.2999 23 55.7999 22 56.8999C20.9 57.9999 20.7 63.9999 20.7 68.9999C20.7 73.9999 20.8 80.6999 20.5 81.7999C20.2 82.8999 19 84.5999 18.6 87.3999C18.2 90.1999 17.6 91.8999 17.3 95.7999C17.1 98.5999 17.2 101.4 17.3 102.8C16.9 102.8 16.5 102.7 16.1 102.3Z" fill="#F7BA02"/>
<path d="M39.8 46.2999C39.8 46.2999 39.1 49.4999 39 49.9999C38.9 50.4999 38.4 50.8999 37.5 50.8999C36.6 50.8999 35.9 50.5999 35.7 50.0999C35.5 49.6999 35.3 47.2999 35.5 46.9999C35.6 46.6999 36.3 45.9999 36.8 45.5999C37.3 45.2999 37.7 44.8999 37.7 44.8999L39.8 46.2999Z" fill="#E06E7F"/>
<path d="M27.5 18.7L27.9 20.7C27.9 20.7 27.8 21.7 27.5 22.2C27.2 22.7 26.2 23.5 26.2 23.5L24.6 24.1L22.7 23.7L20.2 22L18.7 18.2C18.7 18.2 19.4 16.7 19.4 15.7C19.4 14.7 19.3 13.3 19.3 13.3L22.1 13.7L24.6 15.2L27.5 18.7Z" fill="#C4495B"/>
<path d="M36.7 50.0999C37 51.0999 36.2 53.1999 29.8 54.0999C23.4 54.9999 18.4 54.2999 17.5 53.6999C16.6 53.0999 17.6 47.7999 17.5 45.5999C17.4 43.3999 15.5 32.9999 14.2 33.4999C12.9 33.9999 11.6 36.4999 10.8 38.1999C9.99996 39.8999 8.09998 42.2 8.19998 42.8C8.19998 43.3 10.8 46.3999 12.3 48.0999C13.8 49.7999 16.5 51.9999 16.5 51.9999C16.5 51.9999 17.3 53.0999 16.3 54.3999C15.5 55.3999 14.0999 55.0999 14.0999 55.0999C14.0999 55.0999 7.49995 50.9999 4.59995 48.8999C1.69995 46.6999 0.199947 45.6999 0.599947 43.3999C0.999947 41.0999 7.29998 25.1999 9.19998 23.0999C11.1 20.8999 13.2999 20.0999 15.5999 19.4999C17.8999 18.7999 18.8 18.3 18.8 18.3C18.8 18.3 22.5 24.4999 24.8 23.6999C27.1 22.9999 27.2 22.0999 27.4 20.4999C27.6 18.8999 27.5999 16.3999 27.5999 16.3999C27.5999 16.3999 31.3 15.0999 33.5 15.3999C35.7 15.7999 38.3 18.4999 40.2 21.0999C42.1 23.6999 45.8 26.2999 45.7 28.0999C45.6 29.7999 44.1 35.7999 42.9 39.1999C41.7 42.5999 40 46.3 40 46.3C40 46.3 39.7999 46.4999 38.5999 45.8999C37.5 45.2999 37.7 44.8 37.7 44.8C37.7 44.8 39.5 38.6999 39.8 36.5999C40.1 34.4999 40.7999 31.6999 40.5999 30.6999C40.3999 29.6999 38.4 28.7999 37.7 28.3999C37 27.9999 36.7999 27.7 36.5999 27.8C36.3999 27.9 36.2 31.7999 36.2 33.3999C36.2 34.9999 35.8 38.6999 35.9 40.3999C36 41.9999 36.7 50.0999 36.7 50.0999Z" fill="#1F3E81"/>
<path d="M16.6 51.9C16.6 51.9 17 51.8 18.1 51.8C19.2 51.8 20.5 52.3 21 52.8C21.5 53.3 21.3 54.6 20.6 55.8C19.9 57.1 19.4 57.2 18.6 57.4C17.8 57.6 16.7 57.4 15.9 56.6C15 55.8 14.2 55 14.2 55C14.2 55 15.7 55.1 16.4 54.1C17 53.1 16.6 51.9 16.6 51.9Z" fill="#E06E7F"/>
<path d="M23.3 1.20008C26.3 1.10008 30.1 5.10013 30.5 6.00013C30.9 6.90013 30.5 10.9001 30.5 12.7001C30.5 14.5001 29.5 17.8002 28.8 18.3002C28.1 18.8002 26.6 19.1001 24.5 18.0001C22.4 16.9001 21.1 14.7001 21.1 14.7001C21.1 14.7001 20.2 15.1001 19.7 14.6001C19.2 14.0001 17.7 12.3001 17.9 9.20008C18.1 6.10008 17.5 3.60011 19.2 2.60011C20.9 1.50011 20.9 1.20008 23.3 1.20008Z" fill="#E06E7F"/>
<path d="M30.5 12.3001C30.5 12.3001 30.9 8.40007 30.1 7.30007C28.8 5.50007 26 5.80007 26 5.80007C26 5.80007 23 6.29998 22.5 7.69998C22.1 9.19998 21.6 11.8001 21.6 11.8001C21.6 11.8001 21.1 10.0001 19.8 10.9001C19 11.5001 19.3 13.8001 19.3 13.8001C19.3 13.8001 18.4 13.4 17.9 12.7C17.5 12.1 16.6 11 16.6 8.50003C16.6 5.00003 17.7 1.8 20.5 1.1C24.2 0.100001 27.7 1.40005 30.1 1.40005C32.3 1.50005 31.7 4.9 31.4 6.1C31.2 6.9 31.3 8.59998 31 10.2C30.8 11.8 30.5 12.3001 30.5 12.3001Z" fill="black"/>
<path d="M29 14.7C29 14.7 28.6 15.8 27.6 15.9C26.7 16 25.6 14.7 25.6 14.7H29Z" fill="#FFD4DA"/>
<path opacity="0.6" d="M27.4 61.8C27.6 61.2 27.7 61.1999 29.6 60.6999C31.5 60.1999 32.5 60.4999 32.5 60.4999C32.5 60.4999 31.1 63.5999 32.3 64.9999C32.9 65.7999 33.4 66.6 33.8 67.4C35.7 71 36.7 74.6 37.2 77.9C37.7 81.3 37 86.1999 36.7 89.1999C36.5 91.0999 36.5 94.3 36.4 96.4C36.3 96.4 36.3 96.4 36.2 96.4C34.3 96 34.1 95.4999 34.1 95.4999C34.1 95.4999 34 90.6999 33.5 87.9999C33 85.2999 33.1 82.1999 33.5 81.0999C33.9 79.8999 34.4 79.1 34.1 77.3C33.8 75.4 30.5 70.1999 29.6 67.9999C28.7 65.6999 27.7 62.4999 27.1 62.4999C27.2 62.1999 27.3 62 27.4 61.8Z" fill="#F7BA02"/>
<path d="M0.499988 43.3C0.899988 41 7.19996 25.1 9.09996 23C9.99996 22 10.9 21.3 12 20.7C13.2 21.2 12.7 23.1 12.6 25.5C12.4 28.8 8.99999 32.3 6.49999 36.6C3.99999 41 3.79999 43.6 6.49999 47C8.59999 49.7 14 53.2 16 54.5C15.2 55.2 14 55 14 55C14 55 7.39999 50.9 4.49999 48.8C1.59999 46.6 0.199988 45.6 0.499988 43.3Z" fill="#102D6B"/>
<path d="M37.8 28.3C37.1 27.9 36.9 27.6 36.7 27.7C36.9 27.2 37.1 25.9 37 23C36.9 18.8 36.3 16.9 35.3 16C37 17.1 38.8 19.1 40.2 21C42.1 23.6 45.8 26.2 45.7 28C45.6 29.7 44.1 35.7 42.9 39.1C41.7 42.5 40 46.2 40 46.2C40 46.2 39.8 46.4 38.6 45.8C37.5 45.2 37.7 44.7 37.7 44.7C37.7 44.7 39.5 38.6 39.8 36.5C40.1 34.4 40.8 31.6 40.6 30.6C40.5 29.6 38.5 28.7 37.8 28.3Z" fill="#102D6B"/>
</svg>
