<svg width="48" height="124" viewBox="0 0 48 124" fill="none" xmlns="http://www.w3.org/2000/svg">
<path d="M25.1 20.9004C25.1 20.9004 27.1 20.9006 28.9 21.6006C30.6 22.4006 31.9 23.8004 32.2 26.4004C32.5 29.1004 32.1 30.9004 32.6 33.4004C33.1 35.9004 34 39.8006 34.3 42.1006C34.7 44.4006 35.2 55.8005 35.2 55.8005C35.2 55.8005 35 56.3005 33.5 56.3005C32 56.3005 31.7 55.6006 31.7 55.6006C31.7 55.6006 30.9 50.1006 30.1 47.1006C29.3 44.0006 28.8 39.4004 28.1 37.4004C27.4 35.4004 27.5 33.7005 27.2 34.0005C26.9 34.2005 26.2 38.2005 25.9 40.0005C25.6 41.8005 25.2 43.1006 25.7 45.1006C26.2 47.1006 28.5 50.8005 28.5 50.8005C28.5 50.8005 29.3 52.5004 29.6 53.2004C29.8 53.9004 30.2 55.1006 30.2 55.1006C30.2 55.1006 25.9 58.3004 17.4 59.7004C9.00002 61.1004 10 57.5005 10 57.5005C10 57.5005 10.1 54.3004 10.6 52.7004C11.1 51.1004 12.2 48.9005 12.2 47.8005C12.2 46.6005 10.9 42.3005 10.9 42.3005C10.9 42.3005 10.5 45.2004 9.29999 47.7004C8.09999 50.3004 4.20001 55.4004 4.20001 55.4004C4.20001 55.4004 3.40004 55.7004 2.60004 55.4004C1.80004 55.2004 1.5 54.3005 1.5 54.3005C1.5 54.3005 2.60002 48.6005 3.40002 46.8005C4.20002 45.0005 5.90004 43.3005 6.60004 40.3005C7.40004 37.3005 7.40004 33.6004 7.60004 30.7004C7.80004 27.8004 9.00002 26.1005 10.9 25.0005C12.8 23.9005 14.4 23.5004 14.9 23.2004C15.4 22.8004 15.8 22.3005 15.8 22.3005C15.8 22.3005 17.8 24.5004 21.2 23.9004C25.7 23.3004 25.1 20.9004 25.1 20.9004Z" fill="#FFB12B"/>
<path opacity="0.6" d="M10.5 52.8005C11 51.2005 12.1 49.0004 12.1 47.9004C12.1 46.7004 10.8 42.4004 10.8 42.4004C10.8 42.4004 12.7 38.1006 13.5 36.1006C14.3 34.1006 14 29.8005 14 29.8005C14 29.8005 15.4 34.3005 15.1 36.5005C14.9 38.7005 14 42.0004 14.8 45.7004C15.6 49.4004 15.8 50.1004 16.8 53.7004C17.5 56.2004 17.6 58.6005 17.7 59.8005C17.6 59.8005 17.5 59.8004 17.4 59.9004C9.00002 61.3004 9.99999 57.7004 9.99999 57.7004C9.99999 57.7004 9.99999 54.4005 10.5 52.8005Z" fill="#DE8A02"/>
<path d="M4.00003 55.3005C4.00003 55.3005 4.10003 55.8005 4.00003 56.5005C3.90003 57.2005 3.80003 57.4004 4.00003 58.2004C4.20003 59.1004 4.70003 59.4005 4.50003 59.8005C4.30003 60.1005 4.10004 60.3005 3.70004 60.3005C3.30004 60.2005 3.10006 59.8005 3.10006 59.8005C3.10006 59.8005 2.80006 60.3004 3.10006 60.7004C3.40006 61.1004 3.80003 61.6004 4.00003 61.4004C4.20003 61.3004 4.40006 61.1004 4.60006 61.2004C4.90006 61.3004 5.10006 61.4004 5.10006 61.4004C5.10006 61.4004 6.20006 61.5005 6.10006 61.8005C6.00006 62.0005 5.60006 62.3005 5.10006 62.5005C4.60006 62.7005 4.00001 63.2006 3.30001 63.1006C2.60001 63.0006 1.30005 62.2004 0.900051 61.7004C0.500051 61.2004 0.300026 59.8005 0.500026 58.3005C0.700026 56.8005 1.10001 55.6005 1.30001 55.3005C1.50001 54.9005 1.80001 54.4004 1.80001 54.4004L4.00003 55.3005Z" fill="#E06E7F"/>
<path d="M34.7 55.7004C34.7 55.7004 34.8 57.1004 34.9 57.4004C34.9 57.7004 35.2 58.8006 35.4 59.6006C35.5 60.4006 35.8 60.8005 35.6 61.5005C35.4 62.1005 35.3 62.3005 35.1 62.3005C34.9 62.3005 34.9 62.3005 34.9 62.3005C34.9 62.3005 35.1 62.8005 34.7 63.0005C34.3 63.2005 34.3 63.1005 33.9 63.3005C33.5 63.5005 33.7 63.6004 33.3 63.9004C33 64.2004 32.7 64.2004 32.7 64.2004C32.7 64.2004 32.9 64.8005 32.5 65.0005C32.1 65.2005 31.9 63.9004 31.8 62.7004C31.7 61.5004 31.7 60.3005 31.6 60.3005C31.5 60.3005 31.6 62.0004 31.4 62.2004C31.2 62.4004 30.4 62.3005 30.3 61.8005C30.3 61.3005 30.4 59.6006 30.5 59.1006C30.6 58.6006 30.9 57.9004 31.6 57.4004C32.2 56.9004 32.4 56.6004 32.4 56.4004C32.5 56.2004 32.5 55.7004 32.5 55.7004H34.7Z" fill="#E06E7F"/>
<path d="M30.1 55.2004C30.1 55.2004 30.4 55.7005 29.7 61.0005C29 66.3005 25 73.7004 24.5 75.2004C24 76.7004 22.6 81.1005 22.4 82.8005C22.2 84.4005 22.1 90.2005 21.8 92.0005C21.5 93.8005 18.9 98.5006 17.8 101.601C16.7 104.601 15.7 107.301 15.6 108.101C15.5 108.801 15.9 109.9 15.9 109.9C15.9 109.9 14.5 110.2 12.5 109.5C10.6 108.8 9.90002 108.101 9.90002 108.101C9.90002 108.101 11.8 107.001 12.4 106.101C13 105.201 13.7 103.501 13.7 100.301C13.7 97.1005 13.8 92.9004 14.6 90.2004C15.4 87.4004 15.7 87.6006 15.8 85.6006C15.9 83.7006 15.8 81.3006 15.8 80.1006C15.9 78.9006 18.4 64.8005 18.4 64.8005L21 58.0005L30.1 55.2004Z" fill="#E06E7F"/>
<path d="M10.2 57.9004C10.2 57.9004 9.79999 61.5005 10.2 64.3005C10.6 67.1005 12.3 72.3006 13.8 75.1006C15.3 77.8006 19.7 85.2005 20.1 86.5005C20.5 87.8005 20.9 89.0005 21.3 89.5005C21.7 90.0005 22 91.0005 22.8 91.5005C23.7 92.1005 24 91.9005 24.8 93.0005C25.6 94.2005 34.3 105.3 36.1 108C37.8 110.7 40.9 116.1 41.2 116.9C41.5 117.7 41.8 118.4 41.8 118.4C41.8 118.4 44.1 117.001 44.4 115.801C44.8 114.601 44.1 113.5 44.1 113.5C44.1 113.5 40.9 109.201 39.1 103.601C37.3 98.0006 36 93.8005 33.8 91.8005C31.6 89.8005 29.9 88.8004 28.7 88.2004C27.5 87.6004 27.2 87.0005 27.1 86.5005C26.9 86.0005 25.5 74.0005 24.4 70.0005C23.3 66.0005 22.4 63.5004 21.7 61.4004C20.9 59.4004 20.1 58.3005 20.1 58.3005L19.1 58.1006L10.2 57.9004Z" fill="#E06E7F"/>
<path d="M44.1 113.301C44.1 113.301 47.2 115.6 47.2 115.9C47.2 116.2 45.7 118.301 44.3 120.301C42.9 122.301 41.6 123.4 41.4 123.2C41.2 123 41.8 120.7 41.8 119.7C41.7 118.7 41.7 118.2 41.7 118.2L44.1 113.301Z" fill="#00042F"/>
<path d="M47.2 115.9C47.5 116.2 47 117.3 46.4 118.4C45.8 119.5 45.9 120.5 44.4 122C42.9 123.5 41.4 124.101 41.6 123.301C41.8 122.501 43.7 119.901 45 118.101C46.2 116.401 47.2 115.9 47.2 115.9Z" fill="#242440"/>
<path d="M15.7 109.801C15.7 109.801 16 111.201 15.8 111.801C15.6 112.401 15.4 112.801 14.8 112.801C14.1 112.801 13.6 112.701 10.8 111.601C7.39996 110.201 8.7 110.701 7.4 110.201C6.2 109.701 5.39998 109.101 5.69998 108.601C5.99998 108.101 6.70001 107.8 8.10001 107.9C9.50001 108 9.79996 108.001 9.79996 108.001L12.7 108.4L13.9 108.801L15.7 109.801Z" fill="#00042F"/>
<path d="M25.1 20.9004C25.1 20.9004 24 21.2006 22.9 19.1006C21.8 17.0006 22.5 14.3005 22.5 14.3005L18.6 11.5005L15.3 9.80054H12.5L11.5 12.0005C11.5 12.0005 11 12.5004 11.9 14.2004C12.8 15.9004 13.2 17.3004 13.8 17.7004C14.4 18.1004 14.9 17.6004 15.2 18.2004C15.5 18.8004 16.2 20.7005 16.2 21.5005C16.2 22.3005 15.7 22.5005 15.7 22.5005L16.9 25.0005L21.5 25.5005L24.5 24.5005L25.7 22.9004L25.9 21.9004L25.1 20.9004Z" fill="#E06E7F"/>
<path d="M16 18.5006C16 18.5006 15.2 18.2006 14.4 16.8006C13.6 15.4006 13.1 14.4005 13.1 14.4005C13.1 14.4005 12.8 14.9006 13.1 15.8006C13.4 16.6006 13.5 17.1007 13.5 17.1007C13.5 17.1007 13.2 17.0005 12 15.9005C10.9 14.8005 9.90003 13.0006 9.90003 13.0006L11.1 15.4005C11.1 15.4005 9.60003 15.0007 8.90003 13.1007C8.20003 11.2007 7.40004 7.60052 9.10004 4.70052C10.8 1.80052 12.4 0.500521 15.1 0.200521C17.8 -0.0994793 19.8 -0.199528 21.8 0.900472C23.7 2.00047 25.3 4.60052 25.7 6.20052C26.1 7.80052 26.3 8.70057 26.1 10.0006C26 11.3006 25.4 12.8006 25.4 12.8006L24.7 15.5006C24.7 15.5006 28.7 18.6007 30.8 24.6007C32.8 30.6007 30.8 36.4005 30.8 36.4005C30.8 36.4005 30 35.4006 29.4 33.0006C28.8 30.6006 28.4 28.2005 28.4 28.2005C28.4 28.2005 28.1 30.8005 28.3 31.9005C28.6 33.1005 28.9 34.9005 28.9 34.9005C28.9 34.9005 26.1 33.4005 24 28.7005C21.9 24.0005 21.6 18.2005 21.6 18.2005C21.6 18.2005 20.6 18.4006 19.8 17.5006C19 16.6006 18 15.3006 18 15.3006C18 15.3006 17.5 16.6005 17.7 17.2005C18 17.8005 16.3 16.7005 15.9 15.9005C15.5 15.2005 15.1 14.3006 15.1 14.3006C15.1 14.3006 15.7 17.8006 16 18.5006Z" fill="#552B00"/>
<path d="M30.1 55.2004C30.1 55.2004 30.3 59.7004 30.2 61.7004C30.1 63.7004 25.5 75.4004 25.5 75.4004C25.5 75.4004 25.7 76.1004 25.8 77.2004C25.9 78.1004 26.2 80.0005 26.2 80.0005C26.2 80.0005 24.4 79.8005 22 80.8005C19.7 81.8005 18.4 83.1006 18.4 83.1006L17 81.0005C17 81.0005 16.6 80.9004 16.3 80.7004C15.9 80.5004 15.6 80.4004 15.6 80.4004V78.7004C15.6 78.7004 12.1 73.6004 11.2 69.7004C10.3 65.8004 9.90002 63.4004 9.90002 61.9004C9.90002 60.4004 10.1 58.3005 10.1 58.3005L13.5 58.5005L26.1 55.2004H30.1Z" fill="#3D3D3D"/>
<path d="M13.4 58.5005L26 55.2004H30.1C30.1 55.2004 30.2 57.2006 30.2 59.1006C29.6 59.1006 26.6 59.2006 23.8 60.1006C20.6 61.1006 19.8 64.6004 20.5 71.4004C20.9 75.2004 21.6 78.5004 22.1 80.7004H22C19.7 81.7004 18.4 83.0005 18.4 83.0005L17 80.9004C17 80.9004 16.6 80.8006 16.3 80.6006C15.9 80.4006 15.6 80.3005 15.6 80.3005V78.6006C15.6 78.6006 12.1 73.5006 11.2 69.6006C10.3 65.7006 9.90002 63.3005 9.90002 61.8005C9.90002 60.3005 10.1 58.2004 10.1 58.2004L13.4 58.5005Z" fill="#2B2B2B"/>
</svg>
