<?xml version="1.0" encoding="UTF-8"?>
<svg width="92px" height="93px" viewBox="0 0 92 93" version="1.1" xmlns="http://www.w3.org/2000/svg" xmlns:xlink="http://www.w3.org/1999/xlink">
    <title>Group</title>
    <g id="Page-1" stroke="none" stroke-width="1" fill="none" fill-rule="evenodd">
        <g id="сайт-весь-блок" transform="translate(-595.000000, -1367.000000)" fill="#6200ED" fill-rule="nonzero">
            <g id="Group" transform="translate(595.000000, 1367.000000)">
                <g transform="translate(0.000000, 11.000000)">
                    <polygon id="Path" points="52 15.4 52 18.3 75.6 31.1 46.2 47.1 16.3 31.3 40.8 18.3 40.8 15.4 11 31.3 46.2 49.9 80.8 31.1"></polygon>
                    <polygon id="Path" points="91.7 19.3 57.7 0.8 52 6.5 52 10.1 58.1 3.9 87.6 19.9 76.4 31.1 87.6 42.3 57.9 58.5 46.2 46.8 34.5 58.5 4.3 42.5 15.4 31.3 4.2 20.1 34.7 3.9 40.8 10 40.8 6.4 35.2 0.8 0.1 19.5 11.9 31.3 0.1 43.1 34.9 61.5 46.2 50.3 57.5 61.5 91.7 42.8 80 31.1"></polygon>
                    <rect id="Rectangle" transform="translate(46.361659, 63.997344) rotate(-89.587696) translate(-46.361659, -63.997344) " x="30.9112589" y="62.7473119" width="30.9008001" height="2.50006473"></rect>
                    <polygon id="Path" points="46.2 80.9 12.4 63 12.4 48.8 14.9 48.8 14.9 61.5 46.2 78 77 61.3 77 48.8 79.4 48.8 79.4 62.7"></polygon>
                </g>
                <path d="M46.4,56 L31.5,38.2 L39.6,38.2 L39.6,0.1 L53.2,0.1 L53.2,38.2 L61.3,38.2 L46.4,56 Z M36.8,40.8 L46.4,52.2 L56,40.8 L50.7,40.8 L50.7,2.7 L42.1,2.7 L42.1,40.8 L36.8,40.8 Z" id="Shape"></path>
                <path d="M46.2,60.9 L11,42.3 L42.1,25.7 L42.1,40.7 L36.8,40.7 L46.4,52.1 L56,40.7 L50.7,40.7 L50.7,25.7 L80.8,42 L46.2,60.9 Z M16.3,42.3 L46.2,58.1 L75.6,42.1 L53.2,30 L53.2,38.3 L61.3,38.3 L46.3,56.1 L31.4,38.3 L39.5,38.3 L39.5,29.9 L16.3,42.3 Z" id="Shape"></path>
            </g>
        </g>
    </g>
</svg>