<svg width="52" height="124" viewBox="0 0 52 124" fill="none" xmlns="http://www.w3.org/2000/svg">
<path d="M17.7048 115.7C17.7048 115.7 16.6048 116.3 14.5048 117.7C12.8048 118.8 11.2047 119.4 11.3047 120.7C11.4047 121.3 14.7047 121.3 16.8047 121C17.6047 120.9 21.8047 120.4 22.3047 119.9C22.9047 119.3 22.6047 118.7 22.4047 117.8C22.1047 116.3 21.9047 115.7 21.9047 115.7H17.7048Z" fill="#00042F"/>
<path d="M38.3047 115.6C38.3047 115.6 38.2047 119 38.3047 120.5C38.4047 122 38.1047 123.5 39.6047 123.8C41.1047 124.1 42.0047 123.3 42.6047 121.9C43.0047 121 43.6047 119.9 43.2047 117.8C42.8047 115.7 42.0048 114.7 42.0048 114.7L38.3047 115.6Z" fill="#00042F"/>
<path d="M17.7047 114.2V115.7C17.7047 115.7 18.2047 116.3 19.6047 116.3C21.1047 116.3 21.9047 115.7 21.9047 115.7V113.7L17.7047 114.2Z" fill="#F8B002"/>
<path d="M38.1047 114.4C38.1047 114.5 38.3047 115.6 38.3047 115.6C38.3047 115.6 38.9047 116 40.4047 115.6C41.9047 115.2 41.9047 114.7 41.9047 114.7L41.6047 113.5L38.1047 114.4Z" fill="#F8B002"/>
<path d="M19.0047 61.5C19.0047 61.5 17.4047 70.7 16.8047 74C16.2047 77.3 15.8047 80.8 15.8047 83.6C15.8047 86.4 16.4047 89.7 16.3047 92.5C16.2047 95.3 15.5047 98 15.6047 100.3C15.7047 102.6 15.9047 106.7 16.6047 109.5C17.3047 112.3 17.6047 114.3 17.6047 114.3C17.6047 114.3 18.1047 115 20.1047 114.9C22.1047 114.7 22.3047 113.9 22.3047 113.9C22.3047 113.9 22.8047 109.5 23.1047 108C23.4047 106.6 24.3047 104.5 24.1047 101.3C23.9047 98.1 23.4047 97.4 23.7047 94.2C24.0047 91 26.9047 81.5 27.5047 79.4C28.1047 77.3 28.3047 75.7 28.5047 75.8C28.6047 75.8 29.6046 80.5 30.4046 83.6C31.2046 86.7 31.9046 90.7 32.4046 92.6C32.8046 94.5 33.5047 96.3 34.1047 97.6C34.7047 99 34.5047 101.5 34.8047 103.4C35.1047 105.3 37.3047 109.1 37.5047 110.4C37.7047 111.8 38.0047 114.4 38.0047 114.4C38.0047 114.4 38.4047 115.1 40.2047 114.6C42.0047 114.2 42.2047 113.6 42.2047 113.6C42.2047 113.6 42.8047 108 42.8047 104.6C42.8047 101.2 42.0047 97.8 40.6047 95.6C39.3047 93.5 40.6047 86.1 40.6047 84.5C40.6047 82.9 39.3046 74.7 38.9046 71.6C38.6046 68.5 38.4046 64.1 38.4046 64.1L19.0047 61.5Z" fill="#1F3E81"/>
<path d="M40.7047 114.5C42.0047 114.1 42.1047 113.6 42.1047 113.6C42.1047 113.6 42.7047 108 42.7047 104.6C42.7047 101.2 41.9048 97.8 40.5048 95.6C39.2048 93.5 40.5048 86.1 40.5048 84.5C40.5048 82.9 39.2047 74.7 38.8047 71.6C38.5047 68.5 38.3047 64.1 38.3047 64.1L19.0048 61.5C19.0048 61.5 18.8047 62.5 18.6047 64.1C19.5047 64.6 20.6047 65.1 22.1047 65.8C26.4047 67.7 32.3048 67.6 33.0048 68.6C33.8048 69.6 35.1047 75.3 35.2047 79.9C35.3047 84.4 36.4047 89.6 36.9047 93.9C37.4047 98.1 38.9047 100.1 39.9047 105C40.3047 108 40.6047 112 40.7047 114.5Z" fill="#102D6B"/>
<path d="M26.4047 73.1C25.0047 72.2 22.8047 69.2 22.8047 69.2C22.8047 69.2 23.6047 70.4 23.9047 72C24.2047 73.6 23.9047 74.3 22.9047 76.9C21.9047 79.6 19.9047 87.3 19.8047 92.5C19.8047 97.7 19.8047 98.5 19.8047 104.9C19.8047 108.8 19.8047 112 19.8047 114.7C19.9047 114.7 19.9047 114.7 19.9047 114.7C21.9047 114.5 22.1047 113.7 22.1047 113.7C22.1047 113.7 22.6047 109.3 22.9047 107.8C23.2047 106.4 24.1047 104.3 23.9047 101.1C23.7047 97.9 23.2048 97.2 23.5048 94C23.8048 90.8 26.7047 81.3 27.3047 79.2C27.9047 77.1 28.1047 75.5 28.3047 75.6C28.2047 73.8 27.8047 74.1 26.4047 73.1Z" fill="#102D6B"/>
<path d="M0.904638 14.2C0.904638 14.2 0.304638 13.8001 3.40464 13.1001C6.50464 12.3001 6.70469 12.9001 6.70469 12.9001L6.20469 14.6001L4.20469 15.5001L2.70469 15.4001L1.70469 15.1001L0.904638 14.2Z" fill="#C2D4EB"/>
<path d="M1.30473 14.1C1.30473 14.1 1.60473 11.6 1.30473 11C1.00473 10.4 0.604806 10.4 0.504806 9.40002C0.404806 8.40002 0.604757 5.29995 0.204757 3.19995C-0.0952427 1.49995 -0.0952915 0.899951 0.404708 0.699951C1.00471 0.499951 1.30481 1.30002 1.50481 1.90002C1.70481 2.50002 1.80473 3.69995 1.80473 3.69995C1.80473 3.69995 1.20476 0 2.20476 0C2.90476 0 3.00481 1.00002 3.00481 1.40002C3.00481 1.80002 3.20476 4.40002 3.20476 4.40002C3.20476 4.40002 2.80473 0.900024 3.80473 0.900024C4.60473 0.900024 4.70476 1.69998 4.70476 2.59998C4.70476 3.49998 4.80473 5.30005 4.80473 5.30005C4.80473 5.30005 4.70471 2.59998 5.40471 2.59998C6.10471 2.59998 6.30473 4.00002 6.30473 5.40002C6.30473 6.80002 6.20481 8.60005 6.00481 9.30005C5.90481 10 5.50476 10.5 5.70476 11.3C5.80476 12.1 6.00481 13.1 6.00481 13.1C6.00481 13.1 5.70471 14.2 3.90471 14.4C2.10471 14.7 1.30473 14.1 1.30473 14.1Z" fill="#E06E7F"/>
<path d="M5.80469 10.5999C5.80469 10.5999 6.50474 9.49995 6.60474 8.59995C6.70474 7.69995 6.20476 6.39995 5.50476 6.59995C4.80476 6.69995 4.90474 7.39995 5.10474 8.09995C5.20474 8.89995 4.30469 8.69992 4.30469 8.69992L5.80469 10.5999Z" fill="#E87183"/>
<path d="M46.3047 69.7C46.3047 69.7 46.3047 70.6 45.9047 71.3C45.5047 72 44.5048 73.4 44.6048 73.8C44.6048 74.2 45.0047 74.7 45.2047 74.9C45.4047 75.1 45.9047 75.2 45.9047 75.2C45.9047 75.2 46.3048 75.5 46.5048 75.6C46.7048 75.7 46.9047 75.9 47.3047 76C47.6047 76.1 47.9048 76 48.1048 76C48.3048 76 48.7048 76.2 49.1048 76C49.4048 75.9 49.8048 75.8 50.0048 75.6C50.2048 75.4 50.2047 75.2 50.4047 75.1C50.5047 74.9 51.1048 74.4 51.0048 73.5C50.9048 72.6 50.6048 71.9 50.5048 71.4C50.4048 70.9 50.5048 70.1 50.5048 70.1L46.3047 69.7Z" fill="#E06E7F"/>
<path d="M24.7047 30.5C24.6047 30.6 23.2047 31.3 23.2047 31.5C23.2047 31.6 22.6046 34.5 24.4046 35.7C26.2046 36.9 28.0046 36.7 29.3046 35.9C30.6046 35.1 32.9047 32.3 33.1047 31.9C33.3047 31.5 33.1047 31.1 33.1047 31.1C33.1047 31.1 32.5046 31.1 32.3046 30.7C32.2046 30.3 32.2047 27.2 32.2047 27.2L29.2047 27.6L26.6047 29.7L24.7047 30.5Z" fill="#C4495B"/>
<path d="M0.904663 14.2C0.904663 14.2 1.50466 15 3.90466 14.7C6.20466 14.5 6.70471 12.8 6.70471 12.8C6.70471 12.8 7.70466 16 7.90466 17.3C8.10466 18.6 8.40471 19.7 9.70471 21C11.0047 22.3 12.5047 23.3 13.7047 24.4C14.9047 25.5 14.9047 25.5 17.1047 26.5C19.3047 27.5 21.3047 30.6 21.9047 30.9C22.5047 31.2 23.6047 30.9 23.6047 30.9C23.6047 30.9 23.2047 35.9 26.9047 35.8C30.6047 35.6 33.2047 31 33.2047 31C33.2047 31 39.8047 32.7 41.6047 33.9C43.5047 35 44.3047 38.7 45.7047 42C47.1047 45.3 49.8047 51.9 50.2047 54.2C50.5047 56.5 50.5048 62.7 50.5048 64.6C50.6048 66.6 50.3047 69.9 50.3047 69.9C50.3047 69.9 50.4047 70.4 48.4047 70.2C46.5047 70 46.1047 69.4 46.1047 69.4C46.1047 69.4 45.7047 62.2 45.2047 59.2C44.7047 56.2 44.4047 54.5 43.7047 53.5C43.0047 52.5 40.7047 48.5 39.7047 48.9C38.7047 49.4 38.3047 53.9 38.2047 56.8C38.1047 59.8 38.7048 62.2 38.5048 63.5C38.3048 64.8 37.5047 67.2001 28.3047 65.3C19.0047 63.4 18.5048 61.1 18.5048 60C18.5048 58.9 19.3047 54.7 18.7047 50.5C18.1047 46.3 16.4047 40.7 15.3047 39C14.2047 37.3 4.90466 26.3 3.40466 24.2C1.90466 22.2 1.30474 20.9 1.10474 19C0.904736 17.3 0.904663 14.2 0.904663 14.2Z" fill="#C2D4EB"/>
<path d="M36.8047 49.3C35.9047 51.2 35.1048 54.6999 35.2048 59.1999C35.3048 62.2999 35.8047 64.9 36.8047 66C38.4047 65.5 38.7047 64.5 38.8047 63.8C39.0047 62.5 38.5048 60.0999 38.5048 57.0999C38.6048 54.0999 39.0048 49.5999 40.0048 49.1999C39.2048 47.6999 37.6047 47.4 36.8047 49.3Z" fill="#A5BBD9"/>
<path d="M26.9047 35.9C23.2047 36.1 23.6047 31 23.6047 31C23.6047 31 23.4047 31.1 23.1047 31.1C23.1047 31.4 23.1047 32.1 23.1047 32.1C23.1047 32.1 23.4047 35.4 23.8047 36.9C24.2047 38.4 25.8047 44 25.8047 44C25.8047 44 28.2047 41.7 29.8047 39C31.5047 36.3 33.3047 32.4 33.3047 32C33.3047 31.8 33.3047 31.5 33.3047 31.2C33.1047 31.1 33.0048 31.1 33.0048 31.1C33.0048 31.1 30.6047 35.7 26.9047 35.9Z" fill="#EDF3FF"/>
<path d="M23.6047 31.6C23.6047 31.6 23.7047 34.1 24.2047 36.8C24.7047 39.4 25.9047 44.1 25.9047 44.1C25.9047 44.1 30.3047 38.5 31.8047 35.2C33.2047 31.9 33.3047 31.1 33.3047 31.1L34.2047 30.8C34.2047 30.8 34.7047 32.3 32.4047 36.5C30.2047 40.7 25.8047 46.6 25.8047 46.6C25.8047 46.6 23.7047 40.3 23.1047 37.3C22.6047 35.1 22.4047 30.7 22.4047 30.7H23.5048L23.6047 31.6Z" fill="#A5BBD9"/>
<path d="M28.9046 15.7C26.2046 15.7 24.6046 16.9 23.8046 18C23.0046 19.1 22.5046 20.6 22.3046 22.6C22.1046 24.6 22.7047 29.2 23.0047 30.2C23.3047 31.1 23.9047 32.4 25.0047 32.6C26.1047 32.8 28.7047 32.1 30.1047 30.6C31.5047 29.1 31.6047 28 32.0047 27.8C32.4047 27.6 33.7047 27 34.0047 25.6C34.3047 24.3 34.2047 24.1 34.0047 23.8C33.8047 23.5 33.7047 23.2 33.7047 23.2C33.7047 23.2 34.2046 20.6 33.8046 19.1C33.4046 17.6 32.0046 16.5 31.3046 16.1C30.4046 15.7 29.5046 15.7 28.9046 15.7Z" fill="#E06E7F"/>
<path d="M22.3047 23.1C22.3047 23.1 20.9046 21.1001 21.4046 19.3001C21.9046 17.5001 23.2046 16.4001 25.9046 15.4001C28.3046 14.5001 30.0046 14.9 31.9046 16C33.9046 17.1 34.2046 18.5001 34.4046 19.8001C34.5046 21.0001 33.8047 23.4001 33.8047 23.4001C33.8047 23.4001 33.3047 23.1 33.0047 23.5C32.7047 23.9 32.3047 25.7 32.3047 25.7L31.2047 24.6C31.2047 24.6 31.5047 23.5001 31.5047 22.4001C31.5047 21.7001 31.2047 20.8001 30.1047 20.3001C29.1047 19.8001 28.1047 19.5 26.3047 20C24.6047 20.5 23.4046 20.5 23.4046 20.5C23.4046 20.5 22.5047 20.9 22.3047 23.1Z" fill="black"/>
<path d="M23.6047 28.2C23.6047 28.2 24.1047 29.5 25.2047 29.5C26.3047 29.6 27.5048 28.2 27.5048 28.2H23.6047Z" fill="#FFD4DA"/>
<path d="M50.3046 70.1C50.3046 70.1 50.5047 66.7 50.5047 64.8C50.4047 62.8 50.5047 56.7 50.2047 54.4C49.9047 52.1 47.1047 45.4999 45.7047 42.1999C44.3047 38.8999 43.5047 35.2 41.6047 34.1C41.5047 34 41.4046 34 41.3046 33.9C39.0046 33.8 39.2047 36 39.1047 38.3C39.0047 41.1 40.8047 42.4 42.6047 44.5C44.4047 46.6 46.4047 51 47.7047 56C48.7047 59.9 48.6047 67.4 48.5047 70.5C50.4047 70.6 50.3046 70.1 50.3046 70.1Z" fill="#A5BBD9"/>
<path d="M17.0048 26.5999C14.8048 25.5999 14.9047 25.5999 13.6047 24.4999C12.4047 23.3999 10.9047 22.3999 9.60474 21.0999C8.30474 19.7999 8.00469 18.6999 7.80469 17.3999C7.60469 16.0999 6.60474 12.8999 6.60474 12.8999C6.60474 12.8999 6.30469 14.0999 4.80469 14.5999C4.80469 15.1999 4.80466 15.7999 4.90466 16.4999C5.60466 20.7999 6.80471 22.0998 8.20471 24.1998C9.60471 26.2998 11.2047 26.1999 14.2047 28.8999C17.2047 31.4999 19.9047 34.2999 19.9047 34.2999C19.9047 34.2999 20.4047 34.0999 21.1047 33.0999C21.8047 32.0999 21.9047 31.0999 21.9047 31.0999C21.3047 30.6999 19.2048 27.6999 17.0048 26.5999Z" fill="url(#paint0_linear)"/>
<defs>
<linearGradient id="paint0_linear" x1="5.59749" y1="14.3784" x2="17.541" y2="31.0993" gradientUnits="userSpaceOnUse">
<stop stop-color="#A5BBD9"/>
<stop offset="1" stop-color="#C2D4EB"/>
</linearGradient>
</defs>
</svg>
