<svg width="1600" height="1371" viewBox="0 0 1600 1371" fill="none" xmlns="http://www.w3.org/2000/svg">
<path d="M1600 0H0V1371H1600V0Z" fill="url(#paint0_linear)"/>
<mask id="mask0" mask-type="alpha" maskUnits="userSpaceOnUse" x="0" y="0" width="1600" height="1371">
<path d="M1600 0H0V1371H1600V0Z" fill="url(#paint1_linear)"/>
</mask>
<g mask="url(#mask0)">
<path opacity="0.1" d="M-211.015 465.171C57.3514 404.526 292.102 411.981 230.993 592.025C219.417 625.964 210.29 659.904 194.707 690.393C232.218 686.944 269.84 686.61 303.789 687.834C483.665 693.954 614.564 708.754 644.395 775.742C741.345 788.539 804.791 813.242 816.256 865.319C833.843 944.102 716.412 993.731 554.346 1016.1C529.079 1019.55 503.033 1023 477.209 1026.11C495.241 1038.8 507.04 1054.49 511.269 1074.07C513.496 1084.09 513.496 1093.55 511.603 1102.67C591.523 1110.68 651.296 1138.72 648.736 1211.72C646.51 1275.48 544.106 1337.02 389.943 1352.37C294.328 1361.94 205.281 1357.71 149.515 1334.12C122.801 1368.95 86.1804 1394.44 40.0985 1399.11C-208.009 1424.26 -330.894 1408.01 -338.463 1327.67C-346.144 1246.44 -285.369 1197.92 -192.092 1182.46C-192.315 1179.67 -192.426 1176.78 -192.537 1174.11C-284.924 1174.89 -353.156 1161.31 -358.388 1118.92C-370.298 1021.33 -322.88 964.911 -253.312 933.197C-311.86 920.178 -358.054 896.254 -361.17 865.208C-364.843 828.041 -347.702 796.662 -303.401 777.188C-393.784 752.151 -461.126 711.981 -466.135 661.573C-476.152 561.202 -399.683 507.678 -211.015 465.171Z" fill="#262C40"/>
<path opacity="0.1" d="M1151.7 47.0998C1392.8 -7.40017 1603.7 -0.700165 1548.8 161.1C1538.4 191.6 1530.2 222.1 1516.2 249.5C1549.9 246.4 1583.7 246.1 1614.2 247.2C1775.8 252.7 1893.4 266 1920.2 326.2C2007.3 337.7 2064.3 359.9 2074.7 406.7C2090.5 477.5 1985 522.1 1839.4 542.2C1816.7 545.3 1793.3 548.4 1770.1 551.2C1786.3 562.6 1796.9 576.7 1800.7 594.3C1802.7 603.3 1802.7 611.8 1801 620C1872.8 627.2 1926.5 652.4 1924.2 718C1922.2 775.3 1830.2 830.6 1691.7 844.4C1605.8 853 1525.8 849.2 1475.7 828C1451.7 859.2 1418.8 882.2 1377.4 886.4C1154.5 909 1044.1 894.4 1037.3 822.2C1030.4 749.2 1085 705.6 1168.8 691.7C1168.6 689.2 1168.5 686.6 1168.4 684.2C1085.4 684.9 1024.1 672.8 1019.5 634.6C1008.8 546.9 1051.4 496.2 1113.9 467.7C1061.3 456 1019.8 434.5 1017 406.6C1013.7 373.2 1029.1 345 1068.9 327.5C987.8 305 927.3 268.9 922.7 223.6C913.4 133.4 982.2 85.2998 1151.7 47.0998Z" fill="#262C40"/>
</g>
<defs>
<linearGradient id="paint0_linear" x1="-0.0033369" y1="685.518" x2="1600.05" y2="685.518" gradientUnits="userSpaceOnUse">
<stop stop-color="#E998FB"/>
<stop offset="1" stop-color="#C34EFF"/>
</linearGradient>
<linearGradient id="paint1_linear" x1="-0.0033369" y1="685.518" x2="1600.05" y2="685.518" gradientUnits="userSpaceOnUse">
<stop stop-color="#E998FB"/>
<stop offset="1" stop-color="#C34EFF"/>
</linearGradient>
</defs>
</svg>
