<?xml version="1.0" encoding="UTF-8"?>
<svg width="108px" height="102px" viewBox="0 0 108 102" version="1.1" xmlns="http://www.w3.org/2000/svg" xmlns:xlink="http://www.w3.org/1999/xlink">
    <title>Group</title>
    <defs>
        <linearGradient x1="-1210.89982%" y1="182.062191%" x2="942.404142%" y2="-48.3531802%" id="linearGradient-1">
            <stop stop-color="#5652CC" offset="0%"></stop>
            <stop stop-color="#807DFB" offset="100%"></stop>
        </linearGradient>
        <linearGradient x1="-0.415975104%" y1="50.0432862%" x2="100.529461%" y2="50.0432862%" id="linearGradient-2">
            <stop stop-color="#5652CC" offset="0%"></stop>
            <stop stop-color="#807DFB" offset="100%"></stop>
        </linearGradient>
        <linearGradient x1="-555.323641%" y1="192.078369%" x2="425.496666%" y2="-39.154078%" id="linearGradient-3">
            <stop stop-color="#5652CC" offset="0%"></stop>
            <stop stop-color="#807DFB" offset="100%"></stop>
        </linearGradient>
        <linearGradient x1="-1.05779817%" y1="49.8471631%" x2="100.994037%" y2="49.8471631%" id="linearGradient-4">
            <stop stop-color="#5652CC" offset="0%"></stop>
            <stop stop-color="#807DFB" offset="100%"></stop>
        </linearGradient>
        <linearGradient x1="-749.20047%" y1="70.2761513%" x2="595.883929%" y2="36.40799%" id="linearGradient-5">
            <stop stop-color="#5652CC" offset="0%"></stop>
            <stop stop-color="#807DFB" offset="100%"></stop>
        </linearGradient>
        <linearGradient x1="-0.264849624%" y1="49.8370748%" x2="100.187124%" y2="49.8370748%" id="linearGradient-6">
            <stop stop-color="#5652CC" offset="0%"></stop>
            <stop stop-color="#807DFB" offset="100%"></stop>
        </linearGradient>
        <linearGradient x1="-3430.29672%" y1="82.5103719%" x2="2435.15328%" y2="27.7472454%" id="linearGradient-7">
            <stop stop-color="#5652CC" offset="0%"></stop>
            <stop stop-color="#807DFB" offset="100%"></stop>
        </linearGradient>
        <linearGradient x1="-1.04098361%" y1="51.712%" x2="100.697951%" y2="51.712%" id="linearGradient-8">
            <stop stop-color="#5652CC" offset="0%"></stop>
            <stop stop-color="#807DFB" offset="100%"></stop>
        </linearGradient>
        <linearGradient x1="-747.768891%" y1="59.7441689%" x2="597.315508%" y2="43.2708669%" id="linearGradient-9">
            <stop stop-color="#5652CC" offset="0%"></stop>
            <stop stop-color="#807DFB" offset="100%"></stop>
        </linearGradient>
        <linearGradient x1="-0.264661654%" y1="49.7314685%" x2="100.187124%" y2="49.7314685%" id="linearGradient-10">
            <stop stop-color="#5652CC" offset="0%"></stop>
            <stop stop-color="#807DFB" offset="100%"></stop>
        </linearGradient>
        <linearGradient x1="-3426.54877%" y1="82.4838333%" x2="2438.90123%" y2="27.7207068%" id="linearGradient-11">
            <stop stop-color="#5652CC" offset="0%"></stop>
            <stop stop-color="#807DFB" offset="100%"></stop>
        </linearGradient>
        <linearGradient x1="-1.04098361%" y1="52.516%" x2="100.697951%" y2="52.516%" id="linearGradient-12">
            <stop stop-color="#5652CC" offset="0%"></stop>
            <stop stop-color="#807DFB" offset="100%"></stop>
        </linearGradient>
        <linearGradient x1="-1489.55207%" y1="116.11198%" x2="1089.13243%" y2="4.7600724%" id="linearGradient-13">
            <stop stop-color="#5652CC" offset="0%"></stop>
            <stop stop-color="#807DFB" offset="100%"></stop>
        </linearGradient>
        <linearGradient x1="-0.63027027%" y1="50.0585551%" x2="100.609009%" y2="50.0585551%" id="linearGradient-14">
            <stop stop-color="#5652CC" offset="0%"></stop>
            <stop stop-color="#807DFB" offset="100%"></stop>
        </linearGradient>
        <linearGradient x1="-1493.0339%" y1="357.406478%" x2="1157.75821%" y2="-170.589879%" id="linearGradient-15">
            <stop stop-color="#5652CC" offset="0%"></stop>
            <stop stop-color="#807DFB" offset="100%"></stop>
        </linearGradient>
        <linearGradient x1="-2.46637168%" y1="50.0623482%" x2="102.269912%" y2="50.0623482%" id="linearGradient-16">
            <stop stop-color="#5652CC" offset="0%"></stop>
            <stop stop-color="#807DFB" offset="100%"></stop>
        </linearGradient>
        <linearGradient x1="-935.88075%" y1="366.465844%" x2="736.471417%" y2="-170.221811%" id="linearGradient-17">
            <stop stop-color="#5652CC" offset="0%"></stop>
            <stop stop-color="#807DFB" offset="100%"></stop>
        </linearGradient>
        <linearGradient x1="-3.50724638%" y1="50.0633745%" x2="104.710145%" y2="50.0633745%" id="linearGradient-18">
            <stop stop-color="#5652CC" offset="0%"></stop>
            <stop stop-color="#807DFB" offset="100%"></stop>
        </linearGradient>
        <linearGradient x1="-327.096868%" y1="376.986975%" x2="304.554233%" y2="-170.97521%" id="linearGradient-19">
            <stop stop-color="#5652CC" offset="0%"></stop>
            <stop stop-color="#807DFB" offset="100%"></stop>
        </linearGradient>
        <linearGradient x1="-10.292%" y1="49.8546218%" x2="109.824%" y2="49.8546218%" id="linearGradient-20">
            <stop stop-color="#5652CC" offset="0%"></stop>
            <stop stop-color="#807DFB" offset="100%"></stop>
        </linearGradient>
        <linearGradient x1="-975.505512%" y1="374.463786%" x2="721.083524%" y2="-162.223868%" id="linearGradient-21">
            <stop stop-color="#5652CC" offset="0%"></stop>
            <stop stop-color="#807DFB" offset="100%"></stop>
        </linearGradient>
        <linearGradient x1="-3.38285714%" y1="50.0633745%" x2="103.287143%" y2="50.0633745%" id="linearGradient-22">
            <stop stop-color="#5652CC" offset="0%"></stop>
            <stop stop-color="#807DFB" offset="100%"></stop>
        </linearGradient>
        <linearGradient x1="-1572.02184%" y1="373.143725%" x2="1078.77046%" y2="-154.852632%" id="linearGradient-23">
            <stop stop-color="#5652CC" offset="0%"></stop>
            <stop stop-color="#807DFB" offset="100%"></stop>
        </linearGradient>
        <linearGradient x1="-2.37522124%" y1="50.0623482%" x2="102.361062%" y2="50.0623482%" id="linearGradient-24">
            <stop stop-color="#5652CC" offset="0%"></stop>
            <stop stop-color="#807DFB" offset="100%"></stop>
        </linearGradient>
        <linearGradient x1="-1936.88605%" y1="60.5290968%" x2="1391.41581%" y2="42.8959032%" id="linearGradient-25">
            <stop stop-color="#5652CC" offset="0%"></stop>
            <stop stop-color="#807DFB" offset="100%"></stop>
        </linearGradient>
        <linearGradient x1="-0.459302326%" y1="50.628%" x2="100.664419%" y2="50.628%" id="linearGradient-26">
            <stop stop-color="#5652CC" offset="0%"></stop>
            <stop stop-color="#807DFB" offset="100%"></stop>
        </linearGradient>
        <linearGradient x1="-1888.42511%" y1="109.880814%" x2="1379.08584%" y2="9.27076166%" id="linearGradient-27">
            <stop stop-color="#5652CC" offset="0%"></stop>
            <stop stop-color="#807DFB" offset="100%"></stop>
        </linearGradient>
        <linearGradient x1="-0.476712329%" y1="49.5047297%" x2="100.605251%" y2="49.5047297%" id="linearGradient-28">
            <stop stop-color="#5652CC" offset="0%"></stop>
            <stop stop-color="#807DFB" offset="100%"></stop>
        </linearGradient>
        <linearGradient x1="-814.86572%" y1="234.271707%" x2="675.049301%" y2="-83.8136585%" id="linearGradient-29">
            <stop stop-color="#5652CC" offset="0%"></stop>
            <stop stop-color="#807DFB" offset="100%"></stop>
        </linearGradient>
        <linearGradient x1="-1.83542857%" y1="49.9904878%" x2="101.459429%" y2="49.9904878%" id="linearGradient-30">
            <stop stop-color="#5652CC" offset="0%"></stop>
            <stop stop-color="#807DFB" offset="100%"></stop>
        </linearGradient>
        <linearGradient x1="-9763.97045%" y1="944.284091%" x2="6499.32273%" y2="-537.705682%" id="linearGradient-31">
            <stop stop-color="#5652CC" offset="0%"></stop>
            <stop stop-color="#807DFB" offset="100%"></stop>
        </linearGradient>
        <linearGradient x1="-3.43522727%" y1="50.0272727%" x2="102.564773%" y2="50.0272727%" id="linearGradient-32">
            <stop stop-color="#5652CC" offset="0%"></stop>
            <stop stop-color="#807DFB" offset="100%"></stop>
        </linearGradient>
        <linearGradient x1="-9446.15%" y1="915.378409%" x2="6817.14318%" y2="-566.611364%" id="linearGradient-33">
            <stop stop-color="#5652CC" offset="0%"></stop>
            <stop stop-color="#807DFB" offset="100%"></stop>
        </linearGradient>
        <linearGradient x1="-2.82613636%" y1="50.0272727%" x2="103.172727%" y2="50.0272727%" id="linearGradient-34">
            <stop stop-color="#5652CC" offset="0%"></stop>
            <stop stop-color="#807DFB" offset="100%"></stop>
        </linearGradient>
        <linearGradient x1="-442.790816%" y1="427.17%" x2="368.529932%" y2="-193.854286%" id="linearGradient-35">
            <stop stop-color="#5652CC" offset="0%"></stop>
            <stop stop-color="#807DFB" offset="100%"></stop>
        </linearGradient>
        <linearGradient x1="-9.592%" y1="49.9590476%" x2="110.528%" y2="49.9590476%" id="linearGradient-36">
            <stop stop-color="#5652CC" offset="0%"></stop>
            <stop stop-color="#807DFB" offset="100%"></stop>
        </linearGradient>
        <linearGradient x1="-6898.4304%" y1="459.319309%" x2="4550.9272%" y2="-216.75257%" id="linearGradient-37">
            <stop stop-color="#5652CC" offset="0%"></stop>
            <stop stop-color="#807DFB" offset="100%"></stop>
        </linearGradient>
        <linearGradient x1="-2.4896%" y1="50.1604938%" x2="102.6776%" y2="50.1604938%" id="linearGradient-38">
            <stop stop-color="#5652CC" offset="0%"></stop>
            <stop stop-color="#807DFB" offset="100%"></stop>
        </linearGradient>
        <linearGradient x1="-6727.8496%" y1="449.225542%" x2="4721.5088%" y2="-226.846336%" id="linearGradient-39">
            <stop stop-color="#5652CC" offset="0%"></stop>
            <stop stop-color="#807DFB" offset="100%"></stop>
        </linearGradient>
        <linearGradient x1="-2.848%" y1="50.1604938%" x2="102.32%" y2="50.1604938%" id="linearGradient-40">
            <stop stop-color="#5652CC" offset="0%"></stop>
            <stop stop-color="#807DFB" offset="100%"></stop>
        </linearGradient>
        <linearGradient x1="-1399.40956%" y1="55.639575%" x2="1042.85973%" y2="46.1450628%" id="linearGradient-41">
            <stop stop-color="#5652CC" offset="0%"></stop>
            <stop stop-color="#807DFB" offset="100%"></stop>
        </linearGradient>
        <linearGradient x1="-0.324232082%" y1="52.488%" x2="100.506997%" y2="52.488%" id="linearGradient-42">
            <stop stop-color="#5652CC" offset="0%"></stop>
            <stop stop-color="#807DFB" offset="100%"></stop>
        </linearGradient>
    </defs>
    <g id="Page-1" stroke="none" stroke-width="1" fill="none" fill-rule="evenodd">
        <g id="наше-решение_стат" transform="translate(-775.000000, -98.000000)" fill-rule="nonzero" stroke-width="0.4729">
            <g id="Group" transform="translate(774.000000, 99.000000)">
                <g transform="translate(1.000000, 0.000000)">
                    <path d="M19.5,63.1 C16.1,63.1 13.3,60.3 13.3,56.9 L13.3,12.7 C13.3,9.3 16.1,6.5 19.5,6.5 L61.5,6.5 L61.5,9 L19.5,9 C17.5,9 15.9,10.6 15.9,12.6 L15.9,56.8 C15.9,58.8 17.5,60.4 19.5,60.4 L19.5,63.1 Z" id="Path" stroke="url(#linearGradient-2)" fill="url(#linearGradient-1)"></path>
                    <path d="M87.8,62.9 L87.8,60.4 C89.8,60.4 91.4,58.8 91.4,56.8 L91.4,12.6 C91.4,10.6 89.8,9 87.8,9 L72.2,9 L72.2,6.5 L87.8,6.5 C91.2,6.5 94,9.3 94,12.7 L94,56.9 C94,60.1 91.2,62.9 87.8,62.9 Z" id="Path" stroke="url(#linearGradient-4)" fill="url(#linearGradient-3)"></path>
                    <path d="M102.7,90 L4.7,90 C2.4,90 0.5,88.1 0.5,85.8 C0.5,85 0.7,84.2 1.1,83.6 L13.3,63.7 C14.5,61.8 16.6,60.6 18.9,60.6 L24.3,60.6 L24.3,63.1 L18.9,63.1 C17.5,63.1 16.2,63.8 15.5,65 L3.3,84.9 C3.1,85.2 3,85.5 3,85.8 C3,86.6 3.7,87.5 4.7,87.5 L102.7,87.5 C103.3,87.5 103.7,87.2 103.9,87 C104.2,86.7 104.4,86.3 104.4,85.8 C104.4,85.5 104.3,85.2 104.1,84.9 L91.9,65 C91.2,63.8 89.9,63.1 88.5,63.1 L37.2,63.1 L37.2,60.6 L88.5,60.6 C90.8,60.6 92.9,61.8 94.1,63.7 L106.3,83.6 C106.7,84.3 106.9,85 106.9,85.8 C106.9,86.9 106.5,87.9 105.7,88.7 C104.9,89.5 103.8,90 102.7,90 Z" id="Path" stroke="url(#linearGradient-6)" fill="url(#linearGradient-5)"></path>
                    <rect id="Rectangle" stroke="url(#linearGradient-8)" fill="url(#linearGradient-7)" x="41.5" y="87.4" width="24.4" height="2.5"></rect>
                    <path d="M102.7,100.1 L4.7,100.1 C2.4,100.1 0.5,98.2 0.5,95.9 L0.5,85.8 L3,85.8 C3,86.6 3.7,87.5 4.7,87.5 L102.7,87.5 C103.7,87.5 104.4,86.6 104.4,85.8 L104.4,85.8 L106.9,85.8 L106.7,85.8 L106.9,85.8 L105.8,85.8 L106.9,85.8 L106.9,95.9 C106.9,97 106.5,98 105.7,98.8 C104.9,99.6 103.8,100.1 102.7,100.1 Z M3,89.6 L3,95.9 C3,96.7 3.7,97.5 4.7,97.5 L102.7,97.5 C103.3,97.5 103.7,97.2 103.9,97 C104.2,96.7 104.4,96.3 104.4,95.8 L104.4,89.5 C103.9,89.7 103.3,89.8 102.7,89.8 L4.7,89.8 C4.1,90 3.5,89.8 3,89.6 Z" id="Shape" stroke="url(#linearGradient-10)" fill="url(#linearGradient-9)"></path>
                    <rect id="Rectangle" stroke="url(#linearGradient-8)" fill="url(#linearGradient-7)" x="41.5" y="87.4" width="24.4" height="2.5"></rect>
                    <rect id="Rectangle" stroke="url(#linearGradient-12)" fill="url(#linearGradient-11)" x="41.5" y="97.5" width="24.4" height="2.5"></rect>
                    <g transform="translate(21.000000, 14.000000)">
                        <path d="M51.8,42.7 L15.9,42.7 L6.1,16.4 L61.6,16.4 L51.8,42.7 Z M17.6,40.2 L50,40.2 L57.9,18.9 L9.7,18.9 L17.6,40.2 Z" id="Shape" stroke="url(#linearGradient-14)" fill="url(#linearGradient-13)"></path>
                        <g transform="translate(6.000000, 17.000000)">
                            <polygon id="Path" stroke="url(#linearGradient-16)" fill="url(#linearGradient-15)" points="9.6 24.9 0.7 1.1 3.1 0.2 12 24"></polygon>
                            <polygon id="Path" stroke="url(#linearGradient-18)" fill="url(#linearGradient-17)" points="18.1 24.7 13.6 0.9 16.1 0.4 20.5 24.2"></polygon>
                            <rect id="Rectangle" stroke="url(#linearGradient-20)" fill="url(#linearGradient-19)" x="26.6" y="0.7" width="2.5" height="23.8"></rect>
                            <polygon id="Path" stroke="url(#linearGradient-22)" fill="url(#linearGradient-21)" points="37.6 24.7 35.1 24.2 39.6 0.4 42.1 0.9"></polygon>
                            <polygon id="Path" stroke="url(#linearGradient-24)" fill="url(#linearGradient-23)" points="46.1 24.9 43.7 24 52.6 0.2 55 1.1"></polygon>
                        </g>
                        <rect id="Rectangle" stroke="url(#linearGradient-26)" fill="url(#linearGradient-25)" x="12.3" y="28.3" width="43" height="2.5"></rect>
                        <path d="M52,55.1 L15.6,55.1 C11.5,55.1 8.2,51.8 8.2,47.7 C8.2,43.6 11.5,40.3 15.6,40.3 L19.7,40.3 L19.7,42.8 L15.6,42.8 C12.9,42.8 10.7,45 10.7,47.7 C10.7,50.4 12.9,52.6 15.6,52.6 L52,52.6 L52,55.1 Z" id="Path" stroke="url(#linearGradient-28)" fill="url(#linearGradient-27)"></path>
                        <path d="M15.6,41.9 L1.5,4.1 C1.3,3.7 0.9,3.4 0.5,3.4 L0.5,0.9 C2,0.9 3.4,1.9 3.9,3.3 L18,41 L15.6,41.9 Z" id="Path" stroke="url(#linearGradient-30)" fill="url(#linearGradient-29)"></path>
                        <path d="M45.9,64.2 C43.5,64.2 41.5,62.2 41.5,59.8 C41.5,57.4 43.5,55.4 45.9,55.4 C48.3,55.4 50.3,57.4 50.3,59.8 C50.3,62.2 48.3,64.2 45.9,64.2 Z M45.9,57.9 C44.9,57.9 44,58.8 44,59.8 C44,60.8 44.9,61.7 45.9,61.7 C46.9,61.7 47.8,60.8 47.8,59.8 C47.8,58.8 46.9,57.9 45.9,57.9 Z" id="Shape" stroke="url(#linearGradient-32)" fill="url(#linearGradient-31)"></path>
                        <path d="M17.7,64.2 C15.3,64.2 13.3,62.2 13.3,59.8 C13.3,57.4 15.3,55.4 17.7,55.4 C20.1,55.4 22.1,57.4 22.1,59.8 C22.1,62.2 20.2,64.2 17.7,64.2 Z M17.7,57.9 C16.7,57.9 15.8,58.8 15.8,59.8 C15.8,60.8 16.7,61.7 17.7,61.7 C18.7,61.7 19.6,60.8 19.6,59.8 C19.6,58.8 18.8,57.9 17.7,57.9 Z" id="Shape" stroke="url(#linearGradient-34)" fill="url(#linearGradient-33)"></path>
                    </g>
                    <rect id="Rectangle" stroke="url(#linearGradient-36)" fill="url(#linearGradient-35)" x="65.6" y="0.2" width="2.5" height="21"></rect>
                    <polygon id="Path" stroke="url(#linearGradient-38)" fill="url(#linearGradient-37)" points="66.9 23 60.6 16.7 62.4 14.9 66.9 19.4 71.3 14.9 73.1 16.7"></polygon>
                    <polygon id="Path" stroke="url(#linearGradient-40)" fill="url(#linearGradient-39)" points="45.3 23 39.1 16.7 40.9 14.9 45.3 19.4 49.8 14.9 51.6 16.7"></polygon>
                    <rect id="Rectangle" stroke="url(#linearGradient-42)" fill="url(#linearGradient-41)" x="23.8" y="79" width="58.6" height="2.5"></rect>
                </g>
            </g>
        </g>
    </g>
</svg>