<?xml version="1.0" encoding="UTF-8"?>
<svg width="116px" height="92px" viewBox="0 0 116 92" version="1.1" xmlns="http://www.w3.org/2000/svg" xmlns:xlink="http://www.w3.org/1999/xlink">
    <title>Shape</title>
    <defs>
        <linearGradient x1="-899.216073%" y1="118.710149%" x2="340.92926%" y2="29.3052252%" id="linearGradient-1">
            <stop stop-color="#5652CC" offset="0%"></stop>
            <stop stop-color="#807DFB" offset="100%"></stop>
        </linearGradient>
    </defs>
    <g id="Page-1" stroke="none" stroke-width="1" fill="none" fill-rule="evenodd">
        <g id="наше-решение_стат" transform="translate(-1003.000000, -111.000000)" fill="url(#linearGradient-1)" fill-rule="nonzero">
            <g id="Group" transform="translate(1003.000000, 111.000000)">
                <path d="M114.5,23.5 L105,3.4 C104.1,1.5 102.2,0.3 100.1,0.3 L15.9,0.3 C13.8,0.3 11.9,1.5 11,3.4 L1.5,23.5 C-0.3,27.4 -0.1,32 2.3,35.6 C4.2,38.6 7.3,40.6 10.7,41.3 L10.7,87.6 L6.4,87.6 C5.3,87.6 4.4,88.5 4.4,89.6 C4.4,90.7 5.3,91.6 6.4,91.6 L110,91.6 C111.1,91.6 112,90.7 112,89.6 C112,88.5 111.1,87.6 110,87.6 L105.4,87.6 L105.4,41.3 C108.8,40.7 111.9,38.7 113.8,35.6 C116.1,32 116.3,27.4 114.5,23.5 Z M83,4.3 L89.3,26.6 C90,29.2 89.5,32 87.9,34.1 C86.3,36.3 83.8,37.5 81,37.5 L79.9,37.5 C75.4,37.5 71.8,34.1 71.3,29.7 L71.1,27.7 C71.1,27.7 71.1,27.7 71.1,27.7 L68.9,4.3 L83,4.3 Z M48.7,28.1 L50.9,4.3 L65,4.3 L67.2,28.1 C67.4,30.5 66.6,32.9 65,34.7 C63.3,36.5 61.1,37.5 58.6,37.5 L57.2,37.5 C54.7,37.5 52.5,36.5 50.8,34.7 C49.2,32.8 48.4,30.5 48.7,28.1 Z M46.9,4.3 L44.7,27.7 C44.7,27.7 44.7,27.7 44.7,27.7 L44.5,29.7 C44.1,34.1 40.4,37.5 35.9,37.5 L34.8,37.5 C32.1,37.5 29.6,36.3 27.9,34.1 C26.3,31.9 25.7,29.2 26.5,26.6 L32.8,4.3 L46.9,4.3 Z M5.6,33.5 C4,31 3.8,27.9 5.1,25.2 L14.6,5.1 C14.8,4.6 15.4,4.3 15.9,4.3 L28.8,4.3 L22.8,25.5 L22.8,25.5 L21.2,31.3 C20.2,35 16.8,37.6 12.9,37.6 C9.9,37.5 7.2,36 5.6,33.5 Z M101.3,87.6 L46.5,87.6 L46.5,42.9 C46.5,41.8 45.6,40.9 44.5,40.9 C43.4,40.9 42.5,41.8 42.5,42.9 L42.5,87.6 L14.6,87.6 L14.6,41.4 C18.5,40.8 21.9,38.5 23.8,35 C24.1,35.5 24.4,36 24.8,36.5 C27.2,39.7 30.9,41.5 34.8,41.5 L35.9,41.5 C40.4,41.5 44.3,39.2 46.6,35.6 C47,36.2 47.4,36.8 47.9,37.3 C50.3,39.9 53.7,41.4 57.2,41.4 L58.6,41.4 C62.1,41.4 65.5,39.9 67.9,37.3 C68.4,36.8 68.8,36.2 69.2,35.6 C71.4,39.1 75.4,41.5 79.9,41.5 L81,41.5 C85,41.5 88.6,39.7 91,36.5 C91.4,36 91.7,35.5 92,35 C93.9,38.4 97.3,40.8 101.2,41.4 L101.2,87.6 L101.3,87.6 Z M110.4,33.5 C108.8,36 106.1,37.5 103.1,37.5 L103.1,37.5 C99.3,37.5 95.9,34.9 94.8,31.2 L93.2,25.4 L93.2,25.4 L87.2,4.2 L100.1,4.2 C100.7,4.2 101.2,4.5 101.4,5 L110.9,25.1 C112.1,27.9 111.9,31 110.4,33.5 Z M20,62.1 C18.4,62.1 17,63.4 17,65.1 C17,66.7 18.3,68.1 20,68.1 C21.6,68.1 23,66.8 23,65.1 C23,63.4 21.7,62.1 20,62.1 Z M79.5,59.6 C80.3,58.8 80.3,57.6 79.5,56.8 C78.7,56 77.5,56 76.7,56.8 L70.1,63.4 C69.3,64.2 69.3,65.4 70.1,66.2 C70.5,66.6 71,66.8 71.5,66.8 C72,66.8 72.5,66.6 72.9,66.2 L79.5,59.6 Z M85.8,59.3 L72.7,72.4 C71.9,73.2 71.9,74.4 72.7,75.2 C73.1,75.6 73.6,75.8 74.1,75.8 C74.6,75.8 75.1,75.6 75.5,75.2 L88.6,62.1 C89.4,61.3 89.4,60.1 88.6,59.3 C87.8,58.6 86.6,58.6 85.8,59.3 Z" id="Shape"></path>
            </g>
        </g>
    </g>
</svg>