<?xml version="1.0" encoding="UTF-8"?>
<svg width="38px" height="38px" viewBox="0 0 38 38" version="1.1" xmlns="http://www.w3.org/2000/svg" xmlns:xlink="http://www.w3.org/1999/xlink">
    <title>Group</title>
    <defs>
        <linearGradient x1="47.5400411%" y1="101.225258%" x2="47.5400411%" y2="-0.556185567%" id="linearGradient-1">
            <stop stop-color="#5752C9" offset="0%"></stop>
            <stop stop-color="#807DF8" offset="100%"></stop>
        </linearGradient>
    </defs>
    <g id="Page-1" stroke="none" stroke-width="1" fill="none" fill-rule="evenodd">
        <g id="плашки-стрелки_Монтажная-область-1" transform="translate(19.050000, 19.250000) rotate(-90.000000) translate(-19.050000, -19.250000) translate(0.350000, 0.550000)" fill-rule="nonzero">
            <g id="Group">
                <circle id="Oval" fill="#ECEDED" cx="18.7" cy="18.7" r="18.7"></circle>
                <circle id="Oval" fill="#FFFFFF" cx="18.7" cy="18.7" r="15.6"></circle>
                <path d="M17.2,27.8969072 C17.3,28 17.3,28 17.4,28 C17.4,28 17.4,28 17.5,28 C17.5,28 17.5,28 17.6,28 C17.6,28 17.6,28 17.7,28 C17.7,28 17.7,28 17.8,28 C17.8,28 17.8,28 17.9,28 C17.9,28 17.9,28 18,28 L18.1,28 L18.2,28 C18.2,28 18.2,28 18.3,28 C18.4,28 18.5,28 18.6,28 C18.6,28 18.6,28 18.7,28 L18.8,28 L18.9,28 C18.9,28 18.9,28 19,28 L19.1,28 C19.1,28 19.1,28 19.2,28 C19.2,28 19.2,28 19.3,28 C19.3,28 19.3,28 19.4,28 C19.4,28 19.4,28 19.5,28 C19.5,28 19.5,28 19.6,28 C19.6,28 19.6,28 19.7,27.8969072 C19.7,27.8969072 19.7,27.8969072 19.8,27.8969072 L19.9,27.7938144 L24.7,22.8453608 C25.2,22.3298969 25.2,21.4020619 24.7,20.8865979 C24.2,20.371134 23.3,20.371134 22.8,20.8865979 L20.3,23.4639175 L20.3,9.34020619 C20.3,8.51546392 19.7,8 19,8 C18.3,8 17.7,8.6185567 17.7,9.34020619 L17.7,23.4639175 L15.2,20.8865979 C14.7,20.371134 13.8,20.371134 13.3,20.8865979 C13,21.1958763 12.9,21.5051546 12.9,21.9175258 C12.9,22.3298969 13.1,22.6391753 13.3,22.9484536 L18.1,27.8969072 C17.1,27.8969072 17.1,27.8969072 17.2,27.8969072 Z" id="Path" fill="url(#linearGradient-1)"></path>
            </g>
        </g>
    </g>
</svg>